<svg width="358" height="100" viewBox="0 0 358 100" fill="none" xmlns="http://www.w3.org/2000/svg">
<g filter="url(#filter0_d_141_316)">
<path d="M265.025 61.9103C265.025 68.4854 255.755 69.8794 253.821 63.5952L249.306 48.9214C248.334 45.7635 244.857 44.1251 241.803 45.3856V45.3856C236.125 47.7292 237.8 56.182 243.943 56.182H259.296C262.46 56.182 265.025 58.7466 265.025 61.9103V61.9103Z" fill="#FFCBDE"/>
<path d="M254.299 63.4482L252.217 56.682H259.296C262.184 56.682 264.525 59.0228 264.525 61.9103C264.525 67.9115 256.064 69.1838 254.299 63.4482ZM250.863 55.682H243.943C238.348 55.682 236.821 47.9825 241.994 45.8477C244.776 44.6996 247.943 46.192 248.828 49.0685L250.863 55.682Z" stroke="#9B355A"/>
</g>
<g filter="url(#filter1_d_141_316)">
<path d="M246.944 68.4937C240.715 68.7976 239.098 59.9449 245.061 58.1826L258.728 54.1439C262.442 53.0464 264.089 48.7429 262.076 45.3966V45.3966C258.842 40.0198 250.613 42.4818 250.999 48.7108L251.882 62.9771C252.062 65.8821 249.851 68.3519 246.944 68.4937V68.4937Z" fill="#FFCBDE"/>
<path d="M245.209 58.6619L251.008 56.9482L251.383 63.0015C251.546 65.6308 249.545 67.8663 246.913 67.9947C241.275 68.2697 239.812 60.2569 245.209 58.6619ZM251.928 55.6304L251.498 48.6864C251.144 42.979 258.685 40.7231 261.648 45.6497C263.492 48.7159 261.983 52.659 258.58 53.6646L251.928 55.6304Z" stroke="#9B355A"/>
</g>
<rect x="253.661" y="57.8729" width="3.93807" height="3.3818" rx="1.6909" transform="rotate(-180 253.661 57.8729)" fill="#BF5F82" stroke="#9B355A"/>
<g filter="url(#filter2_d_141_316)">
<path d="M190.367 62.4473C190.367 66.2998 184.853 66.9523 183.954 63.2063L181.894 54.6238C181.329 52.2698 178.696 51.0804 176.556 52.2126V52.2126C173.139 54.0204 174.424 59.1959 178.289 59.1959H187.116C188.911 59.1959 190.367 60.6516 190.367 62.4473V62.4473Z" fill="#FFCBDE"/>
<path d="M184.44 63.0896L183.626 59.6959H187.116C188.635 59.6959 189.867 60.9278 189.867 62.4473C189.867 65.7073 185.201 66.2595 184.44 63.0896ZM182.357 58.6959H178.289C174.945 58.6959 173.834 54.2185 176.79 52.6545C178.641 51.6751 180.919 52.704 181.408 54.7406L182.357 58.6959Z" stroke="#9B355A"/>
</g>
<g filter="url(#filter3_d_141_316)">
<path d="M179.806 67.8712C175.735 68.1258 174.588 62.4402 178.418 60.9893L187.369 57.5977C189.279 56.8743 190.182 54.6762 189.322 52.8443V52.8443C187.716 49.4204 182.542 50.7753 182.725 54.5718L183.185 64.0954C183.28 66.0581 181.767 67.7486 179.806 67.8712V67.8712Z" fill="#FFCBDE"/>
<path d="M178.589 61.457L182.486 59.9805L182.686 64.1266C182.768 65.8135 181.467 67.2664 179.782 67.3718C176.283 67.5906 175.297 62.704 178.589 61.457ZM183.418 58.5622L183.224 54.5406C183.067 51.2918 187.495 50.1324 188.87 53.0623C189.605 54.6299 188.832 56.511 187.199 57.13L183.418 58.5622Z" stroke="#9B355A"/>
</g>
<rect x="183.925" y="60.2322" width="1.70095" height="2.07258" rx="0.850473" transform="rotate(-180 183.925 60.2322)" fill="#BF5F82" stroke="#9B355A"/>
<g filter="url(#filter4_d_141_316)">
<path d="M168.239 53.1468C168.239 59.7218 158.969 61.1159 157.035 54.8317L152.519 40.1579C151.548 37 148.071 35.3615 145.017 36.622V36.622C139.338 38.9656 141.014 47.4184 147.157 47.4184H162.51C165.674 47.4184 168.239 49.9831 168.239 53.1468V53.1468Z" fill="#FFCBDE"/>
<path d="M157.513 54.6846L155.431 47.9184H162.51C165.398 47.9184 167.739 50.2592 167.739 53.1468C167.739 59.1479 159.278 60.4203 157.513 54.6846ZM154.077 46.9184H147.157C141.562 46.9184 140.035 39.2189 145.208 37.0842C147.99 35.936 151.156 37.4285 152.042 40.3049L154.077 46.9184Z" stroke="#9B355A"/>
</g>
<g filter="url(#filter5_d_141_316)">
<path d="M150.158 59.7303C143.929 60.0341 142.312 51.1814 148.275 49.4192L161.942 45.3804C165.655 44.2829 167.303 39.9795 165.29 36.6331V36.6331C162.056 31.2563 153.827 33.7184 154.212 39.9474L155.096 54.2137C155.276 57.1186 153.065 59.5885 150.158 59.7303V59.7303Z" fill="#FFCBDE"/>
<path d="M148.423 49.8984L154.222 48.1848L154.597 54.238C154.76 56.8674 152.759 59.1029 150.127 59.2312C144.489 59.5063 143.026 51.4935 148.423 49.8984ZM155.142 46.867L154.712 39.923C154.358 34.2156 161.898 31.9596 164.862 36.8863C166.706 39.9525 165.197 43.8956 161.794 44.9012L155.142 46.867Z" stroke="#9B355A"/>
</g>
<rect x="156.875" y="49.1093" width="3.93807" height="3.3818" rx="1.6909" transform="rotate(-180 156.875 49.1093)" fill="#BF5F82" stroke="#9B355A"/>
<g filter="url(#filter6_d_141_316)">
<path d="M120.833 61.9103C120.833 68.4854 111.564 69.8794 109.63 63.5952L105.114 48.9214C104.142 45.7635 100.666 44.1251 97.6114 45.3856V45.3856C91.933 47.7292 93.6087 56.182 99.7518 56.182H115.105C118.268 56.182 120.833 58.7466 120.833 61.9103V61.9103Z" fill="#FFCBDE"/>
<path d="M110.108 63.4482L108.025 56.682H115.105C117.992 56.682 120.333 59.0228 120.333 61.9103C120.333 67.9115 111.873 69.1838 110.108 63.4482ZM106.671 55.682H99.7518C94.1562 55.682 92.6298 47.9825 97.8022 45.8477C100.584 44.6996 103.751 46.192 104.636 49.0685L106.671 55.682Z" stroke="#9B355A"/>
</g>
<g filter="url(#filter7_d_141_316)">
<path d="M102.753 68.4937C96.5233 68.7976 94.9067 59.9449 100.87 58.1826L114.536 54.1439C118.25 53.0464 119.897 48.7429 117.884 45.3966V45.3966C114.65 40.0198 106.421 42.4818 106.807 48.7108L107.691 62.9771C107.871 65.8821 105.66 68.3519 102.753 68.4937V68.4937Z" fill="#FFCBDE"/>
<path d="M101.018 58.6619L106.816 56.9482L107.191 63.0015C107.354 65.6308 105.353 67.8663 102.722 67.9947C97.0834 68.2697 95.6202 60.2569 101.018 58.6619ZM107.736 55.6304L107.306 48.6864C106.953 42.979 114.493 40.7231 117.456 45.6497C119.3 48.7159 117.791 52.659 114.388 53.6646L107.736 55.6304Z" stroke="#9B355A"/>
</g>
<rect x="109.469" y="57.8729" width="3.93807" height="3.3818" rx="1.6909" transform="rotate(-180 109.469 57.8729)" fill="#BF5F82" stroke="#9B355A"/>
<g filter="url(#filter8_d_141_316)">
<path d="M135.715 39.6622C135.715 43.0207 130.884 43.5384 130.172 40.2562L128.544 32.7462C128.055 30.4898 125.504 29.3699 123.512 30.537V30.537C120.526 32.2864 121.767 36.859 125.227 36.859H132.912C134.46 36.859 135.715 38.1141 135.715 39.6622V39.6622Z" fill="#FFCBDE"/>
<path d="M130.661 40.1503L130.056 37.359H132.912C134.184 37.359 135.215 38.3902 135.215 39.6622C135.215 42.4217 131.246 42.847 130.661 40.1503ZM128.816 36.359H125.227C122.277 36.359 121.219 32.4601 123.765 30.9684C125.463 29.9733 127.638 30.9281 128.056 32.8521L128.816 36.359Z" stroke="#9B355A"/>
</g>
<g filter="url(#filter9_d_141_316)">
<path d="M126.462 45.0546C122.753 45.3114 121.661 40.1775 125.116 38.7281L133.322 35.2857C134.893 34.6266 135.648 32.8133 134.994 31.2696V31.2696C133.694 28.2016 129.072 29.3592 129.218 32.7161L129.603 41.5379C129.683 43.3545 128.276 44.9291 126.462 45.0546V45.0546Z" fill="#FFCBDE"/>
<path d="M125.299 39.1893L128.934 37.6643L129.105 41.5724C129.172 43.1132 127.979 44.4486 126.44 44.5551C123.295 44.7729 122.368 40.4186 125.299 39.1893ZM129.871 36.1958L129.717 32.6816C129.595 29.8821 133.45 28.9167 134.534 31.4753C135.08 32.7626 134.45 34.2749 133.14 34.8245L129.871 36.1958Z" stroke="#9B355A"/>
</g>
<rect x="130.156" y="37.8072" width="1.29945" height="1.89629" rx="0.649727" transform="rotate(-180 130.156 37.8072)" fill="#BF5F82" stroke="#9B355A"/>
<g filter="url(#filter10_d_141_316)">
<path d="M221.076 53.1468C221.076 59.7218 211.807 61.1159 209.873 54.8317L205.357 40.1579C204.385 37 200.908 35.3615 197.854 36.622V36.622C192.176 38.9656 193.852 47.4184 199.995 47.4184H215.348C218.511 47.4184 221.076 49.9831 221.076 53.1468V53.1468Z" fill="#FFCBDE"/>
<path d="M210.35 54.6846L208.268 47.9184H215.348C218.235 47.9184 220.576 50.2592 220.576 53.1468C220.576 59.1479 212.116 60.4203 210.35 54.6846ZM206.914 46.9184H199.995C194.399 46.9184 192.873 39.2189 198.045 37.0842C200.827 35.936 203.994 37.4285 204.879 40.3049L206.914 46.9184Z" stroke="#9B355A"/>
</g>
<g filter="url(#filter11_d_141_316)">
<path d="M202.996 59.7303C196.766 60.0341 195.15 51.1814 201.113 49.4192L214.779 45.3804C218.493 44.2829 220.14 39.9795 218.127 36.6331V36.6331C214.893 31.2563 206.664 33.7184 207.05 39.9474L207.933 54.2137C208.113 57.1186 205.903 59.5885 202.996 59.7303V59.7303Z" fill="#FFCBDE"/>
<path d="M201.26 49.8984L207.059 48.1848L207.434 54.238C207.597 56.8674 205.596 59.1029 202.965 59.2312C197.326 59.5063 195.863 51.4935 201.26 49.8984ZM207.979 46.867L207.549 39.923C207.196 34.2156 214.736 31.9596 217.699 36.8863C219.543 39.9525 218.034 43.8956 214.631 44.9012L207.979 46.867Z" stroke="#9B355A"/>
</g>
<rect x="209.712" y="49.1093" width="3.93807" height="3.3818" rx="1.6909" transform="rotate(-180 209.712 49.1093)" fill="#BF5F82" stroke="#9B355A"/>
<g filter="url(#filter12_d_141_316)">
<path d="M236.756 39.7012C236.756 43.5058 231.357 44.2436 230.336 40.5784L227.978 32.1106C227.416 30.0944 225.186 29.0566 223.282 29.925V29.925C219.951 31.4443 221.034 36.4312 224.696 36.4312H233.486C235.292 36.4312 236.756 37.8952 236.756 39.7012V39.7012Z" fill="#FFCBDE"/>
<path d="M230.817 40.4443L229.839 36.9312H233.486C235.016 36.9312 236.256 38.1714 236.256 39.7012C236.256 42.9241 231.682 43.549 230.817 40.4443ZM228.523 35.9312H224.696C221.572 35.9312 220.647 31.6762 223.49 30.3799C225.114 29.6389 227.017 30.5245 227.496 32.2447L228.523 35.9312Z" stroke="#9B355A"/>
</g>
<g filter="url(#filter13_d_141_316)">
<path d="M226.335 44.088C222.569 44.291 221.564 38.9721 225.147 37.8019L233.401 35.1065C235.443 34.4396 236.377 32.0842 235.349 30.1949V30.1949C233.593 26.9681 228.684 28.3551 228.889 32.0201L229.376 40.6941C229.475 42.4726 228.114 43.9921 226.335 44.088V44.088Z" fill="#FFCBDE"/>
<path d="M225.304 38.2772L228.678 37.1754L228.876 40.721C228.961 42.2238 227.81 43.5078 226.307 43.5888C223.125 43.7603 222.276 39.266 225.304 38.2772ZM229.603 35.8205L229.389 31.9932C229.213 28.8606 233.409 27.6751 234.91 30.4332C235.789 32.048 234.99 34.0612 233.245 34.6312L229.603 35.8205Z" stroke="#9B355A"/>
</g>
<rect x="230.153" y="37.2911" width="1.77394" height="1.71999" rx="0.859995" transform="rotate(-180 230.153 37.2911)" fill="#BF5F82" stroke="#9B355A"/>
<g filter="url(#filter14_d_141_316)">
<path d="M138.622 67.1007C138.622 68.7223 136.33 69.0553 135.869 67.5007L134.796 63.8865C134.557 63.0792 133.667 62.6614 132.893 62.9927V62.9927C131.485 63.5952 131.915 65.695 133.446 65.695H137.217C137.993 65.695 138.622 66.3244 138.622 67.1007V67.1007Z" fill="#FFCBDE"/>
<path d="M136.348 67.3584L136.003 66.195H137.217C137.717 66.195 138.122 66.6005 138.122 67.1007C138.122 68.1455 136.646 68.36 136.348 67.3584ZM134.663 65.195H133.446C132.459 65.195 132.181 63.8409 133.089 63.4524C133.589 63.2387 134.162 63.5082 134.317 64.0287L134.663 65.195Z" stroke="#9B355A"/>
</g>
<g filter="url(#filter15_d_141_316)">
<path d="M134.172 68.8107C132.611 68.8896 132.202 66.6762 133.693 66.2193L137.115 65.1708C138.014 64.8953 138.418 63.8551 137.943 63.0368V63.0368C137.163 61.6924 135.111 62.2937 135.203 63.8394L135.417 67.4199C135.461 68.151 134.903 68.7737 134.172 68.8107V68.8107Z" fill="#FFCBDE"/>
<path d="M133.844 66.6972L134.854 66.3875L134.918 67.4451C134.945 67.9006 134.597 68.2885 134.142 68.3116C133.169 68.3607 132.915 66.9819 133.844 66.6972ZM135.777 65.0568L135.702 63.8142C135.641 62.794 136.996 62.3971 137.511 63.2844C137.824 63.8246 137.558 64.511 136.964 64.6929L135.777 65.0568Z" stroke="#9B355A"/>
</g>
<rect x="135.695" y="65.9721" width="0.650404" height="0.554072" rx="0.277036" transform="rotate(-180 135.695 65.9721)" fill="#BF5F82" stroke="#9B355A" stroke-width="0.554072"/>
<g filter="url(#filter16_d_141_316)">
<path d="M232.939 67.1007C232.939 68.7223 230.648 69.0553 230.186 67.5007L229.113 63.8865C228.874 63.0792 227.984 62.6614 227.21 62.9927V62.9927C225.802 63.5952 226.232 65.695 227.764 65.695H231.534C232.31 65.695 232.939 66.3244 232.939 67.1007V67.1007Z" fill="#FFCBDE"/>
<path d="M230.665 67.3584L230.32 66.195H231.534C232.034 66.195 232.439 66.6005 232.439 67.1007C232.439 68.1455 230.963 68.36 230.665 67.3584ZM228.98 65.195H227.764C226.776 65.195 226.498 63.8409 227.406 63.4524C227.906 63.2387 228.48 63.5082 228.634 64.0287L228.98 65.195Z" stroke="#9B355A"/>
</g>
<g filter="url(#filter17_d_141_316)">
<path d="M228.489 68.8107C226.928 68.8896 226.519 66.6762 228.01 66.2193L231.432 65.1708C232.331 64.8953 232.735 63.8551 232.26 63.0368V63.0368C231.48 61.6924 229.428 62.2937 229.52 63.8394L229.734 67.4199C229.778 68.151 229.22 68.7737 228.489 68.8107V68.8107Z" fill="#FFCBDE"/>
<path d="M228.161 66.6972L229.172 66.3875L229.235 67.4451C229.262 67.9006 228.915 68.2885 228.459 68.3116C227.487 68.3607 227.232 66.9819 228.161 66.6972ZM230.094 65.0568L230.02 63.8142C229.959 62.794 231.313 62.3971 231.828 63.2844C232.141 63.8246 231.875 64.511 231.281 64.6929L230.094 65.0568Z" stroke="#9B355A"/>
</g>
<rect x="230.012" y="65.9721" width="0.650404" height="0.554072" rx="0.277036" transform="rotate(-180 230.012 65.9721)" fill="#BF5F82" stroke="#9B355A" stroke-width="0.554072"/>
<path d="M358 0L355.639 19.8915C353.561 37.3998 339.109 50.8269 321.495 51.6129L268 54L322 54C341.882 54 358 37.8822 358 18V0Z" fill="#BF5F82"/>
<path d="M0 0L2.36079 19.8915C4.43875 37.3998 18.8914 50.8269 36.505 51.6129L90 54L36 54C16.1177 54 0 37.8822 0 18L0 0Z" fill="#BF5F82"/>
<defs>
<filter id="filter0_d_141_316" x="234.326" y="44.9591" width="34.6986" height="30.6844" filterUnits="userSpaceOnUse" color-interpolation-filters="sRGB">
<feFlood flood-opacity="0" result="BackgroundImageFix"/>
<feColorMatrix in="SourceAlpha" type="matrix" values="0 0 0 0 0 0 0 0 0 0 0 0 0 0 0 0 0 0 127 0" result="hardAlpha"/>
<feOffset dy="4"/>
<feGaussianBlur stdDeviation="2"/>
<feComposite in2="hardAlpha" operator="out"/>
<feColorMatrix type="matrix" values="0 0 0 0 0 0 0 0 0 0 0 0 0 0 0 0 0 0 0.25 0"/>
<feBlend mode="normal" in2="BackgroundImageFix" result="effect1_dropShadow_141_316"/>
<feBlend mode="normal" in="SourceGraphic" in2="effect1_dropShadow_141_316" result="shape"/>
</filter>
<filter id="filter1_d_141_316" x="237.338" y="42.4393" width="29.605" height="34.062" filterUnits="userSpaceOnUse" color-interpolation-filters="sRGB">
<feFlood flood-opacity="0" result="BackgroundImageFix"/>
<feColorMatrix in="SourceAlpha" type="matrix" values="0 0 0 0 0 0 0 0 0 0 0 0 0 0 0 0 0 0 127 0" result="hardAlpha"/>
<feOffset dy="4"/>
<feGaussianBlur stdDeviation="2"/>
<feComposite in2="hardAlpha" operator="out"/>
<feColorMatrix type="matrix" values="0 0 0 0 0 0 0 0 0 0 0 0 0 0 0 0 0 0 0.25 0"/>
<feBlend mode="normal" in2="BackgroundImageFix" result="effect1_dropShadow_141_316"/>
<feBlend mode="normal" in="SourceGraphic" in2="effect1_dropShadow_141_316" result="shape"/>
</filter>
<filter id="filter2_d_141_316" x="170.577" y="51.78" width="23.7903" height="21.9207" filterUnits="userSpaceOnUse" color-interpolation-filters="sRGB">
<feFlood flood-opacity="0" result="BackgroundImageFix"/>
<feColorMatrix in="SourceAlpha" type="matrix" values="0 0 0 0 0 0 0 0 0 0 0 0 0 0 0 0 0 0 127 0" result="hardAlpha"/>
<feOffset dy="4"/>
<feGaussianBlur stdDeviation="2"/>
<feComposite in2="hardAlpha" operator="out"/>
<feColorMatrix type="matrix" values="0 0 0 0 0 0 0 0 0 0 0 0 0 0 0 0 0 0 0.25 0"/>
<feBlend mode="normal" in2="BackgroundImageFix" result="effect1_dropShadow_141_316"/>
<feBlend mode="normal" in="SourceGraphic" in2="effect1_dropShadow_141_316" result="shape"/>
</filter>
<filter id="filter3_d_141_316" x="172.074" y="50.8798" width="21.5748" height="24.9998" filterUnits="userSpaceOnUse" color-interpolation-filters="sRGB">
<feFlood flood-opacity="0" result="BackgroundImageFix"/>
<feColorMatrix in="SourceAlpha" type="matrix" values="0 0 0 0 0 0 0 0 0 0 0 0 0 0 0 0 0 0 127 0" result="hardAlpha"/>
<feOffset dy="4"/>
<feGaussianBlur stdDeviation="2"/>
<feComposite in2="hardAlpha" operator="out"/>
<feColorMatrix type="matrix" values="0 0 0 0 0 0 0 0 0 0 0 0 0 0 0 0 0 0 0.25 0"/>
<feBlend mode="normal" in2="BackgroundImageFix" result="effect1_dropShadow_141_316"/>
<feBlend mode="normal" in="SourceGraphic" in2="effect1_dropShadow_141_316" result="shape"/>
</filter>
<filter id="filter4_d_141_316" x="137.54" y="36.1956" width="34.6986" height="30.6844" filterUnits="userSpaceOnUse" color-interpolation-filters="sRGB">
<feFlood flood-opacity="0" result="BackgroundImageFix"/>
<feColorMatrix in="SourceAlpha" type="matrix" values="0 0 0 0 0 0 0 0 0 0 0 0 0 0 0 0 0 0 127 0" result="hardAlpha"/>
<feOffset dy="4"/>
<feGaussianBlur stdDeviation="2"/>
<feComposite in2="hardAlpha" operator="out"/>
<feColorMatrix type="matrix" values="0 0 0 0 0 0 0 0 0 0 0 0 0 0 0 0 0 0 0.25 0"/>
<feBlend mode="normal" in2="BackgroundImageFix" result="effect1_dropShadow_141_316"/>
<feBlend mode="normal" in="SourceGraphic" in2="effect1_dropShadow_141_316" result="shape"/>
</filter>
<filter id="filter5_d_141_316" x="140.551" y="33.6759" width="29.605" height="34.062" filterUnits="userSpaceOnUse" color-interpolation-filters="sRGB">
<feFlood flood-opacity="0" result="BackgroundImageFix"/>
<feColorMatrix in="SourceAlpha" type="matrix" values="0 0 0 0 0 0 0 0 0 0 0 0 0 0 0 0 0 0 127 0" result="hardAlpha"/>
<feOffset dy="4"/>
<feGaussianBlur stdDeviation="2"/>
<feComposite in2="hardAlpha" operator="out"/>
<feColorMatrix type="matrix" values="0 0 0 0 0 0 0 0 0 0 0 0 0 0 0 0 0 0 0.25 0"/>
<feBlend mode="normal" in2="BackgroundImageFix" result="effect1_dropShadow_141_316"/>
<feBlend mode="normal" in="SourceGraphic" in2="effect1_dropShadow_141_316" result="shape"/>
</filter>
<filter id="filter6_d_141_316" x="90.1345" y="44.9591" width="34.6986" height="30.6844" filterUnits="userSpaceOnUse" color-interpolation-filters="sRGB">
<feFlood flood-opacity="0" result="BackgroundImageFix"/>
<feColorMatrix in="SourceAlpha" type="matrix" values="0 0 0 0 0 0 0 0 0 0 0 0 0 0 0 0 0 0 127 0" result="hardAlpha"/>
<feOffset dy="4"/>
<feGaussianBlur stdDeviation="2"/>
<feComposite in2="hardAlpha" operator="out"/>
<feColorMatrix type="matrix" values="0 0 0 0 0 0 0 0 0 0 0 0 0 0 0 0 0 0 0.25 0"/>
<feBlend mode="normal" in2="BackgroundImageFix" result="effect1_dropShadow_141_316"/>
<feBlend mode="normal" in="SourceGraphic" in2="effect1_dropShadow_141_316" result="shape"/>
</filter>
<filter id="filter7_d_141_316" x="93.146" y="42.4393" width="29.605" height="34.062" filterUnits="userSpaceOnUse" color-interpolation-filters="sRGB">
<feFlood flood-opacity="0" result="BackgroundImageFix"/>
<feColorMatrix in="SourceAlpha" type="matrix" values="0 0 0 0 0 0 0 0 0 0 0 0 0 0 0 0 0 0 127 0" result="hardAlpha"/>
<feOffset dy="4"/>
<feGaussianBlur stdDeviation="2"/>
<feComposite in2="hardAlpha" operator="out"/>
<feColorMatrix type="matrix" values="0 0 0 0 0 0 0 0 0 0 0 0 0 0 0 0 0 0 0.25 0"/>
<feBlend mode="normal" in2="BackgroundImageFix" result="effect1_dropShadow_141_316"/>
<feBlend mode="normal" in="SourceGraphic" in2="effect1_dropShadow_141_316" result="shape"/>
</filter>
<filter id="filter8_d_141_316" x="117.828" y="30.0691" width="21.8872" height="20.3978" filterUnits="userSpaceOnUse" color-interpolation-filters="sRGB">
<feFlood flood-opacity="0" result="BackgroundImageFix"/>
<feColorMatrix in="SourceAlpha" type="matrix" values="0 0 0 0 0 0 0 0 0 0 0 0 0 0 0 0 0 0 127 0" result="hardAlpha"/>
<feOffset dy="4"/>
<feGaussianBlur stdDeviation="2"/>
<feComposite in2="hardAlpha" operator="out"/>
<feColorMatrix type="matrix" values="0 0 0 0 0 0 0 0 0 0 0 0 0 0 0 0 0 0 0.25 0"/>
<feBlend mode="normal" in2="BackgroundImageFix" result="effect1_dropShadow_141_316"/>
<feBlend mode="normal" in="SourceGraphic" in2="effect1_dropShadow_141_316" result="shape"/>
</filter>
<filter id="filter9_d_141_316" x="119.026" y="29.4866" width="20.2042" height="23.5773" filterUnits="userSpaceOnUse" color-interpolation-filters="sRGB">
<feFlood flood-opacity="0" result="BackgroundImageFix"/>
<feColorMatrix in="SourceAlpha" type="matrix" values="0 0 0 0 0 0 0 0 0 0 0 0 0 0 0 0 0 0 127 0" result="hardAlpha"/>
<feOffset dy="4"/>
<feGaussianBlur stdDeviation="2"/>
<feComposite in2="hardAlpha" operator="out"/>
<feColorMatrix type="matrix" values="0 0 0 0 0 0 0 0 0 0 0 0 0 0 0 0 0 0 0.25 0"/>
<feBlend mode="normal" in2="BackgroundImageFix" result="effect1_dropShadow_141_316"/>
<feBlend mode="normal" in="SourceGraphic" in2="effect1_dropShadow_141_316" result="shape"/>
</filter>
<filter id="filter10_d_141_316" x="190.377" y="36.1956" width="34.6986" height="30.6844" filterUnits="userSpaceOnUse" color-interpolation-filters="sRGB">
<feFlood flood-opacity="0" result="BackgroundImageFix"/>
<feColorMatrix in="SourceAlpha" type="matrix" values="0 0 0 0 0 0 0 0 0 0 0 0 0 0 0 0 0 0 127 0" result="hardAlpha"/>
<feOffset dy="4"/>
<feGaussianBlur stdDeviation="2"/>
<feComposite in2="hardAlpha" operator="out"/>
<feColorMatrix type="matrix" values="0 0 0 0 0 0 0 0 0 0 0 0 0 0 0 0 0 0 0.25 0"/>
<feBlend mode="normal" in2="BackgroundImageFix" result="effect1_dropShadow_141_316"/>
<feBlend mode="normal" in="SourceGraphic" in2="effect1_dropShadow_141_316" result="shape"/>
</filter>
<filter id="filter11_d_141_316" x="193.389" y="33.6759" width="29.605" height="34.062" filterUnits="userSpaceOnUse" color-interpolation-filters="sRGB">
<feFlood flood-opacity="0" result="BackgroundImageFix"/>
<feColorMatrix in="SourceAlpha" type="matrix" values="0 0 0 0 0 0 0 0 0 0 0 0 0 0 0 0 0 0 127 0" result="hardAlpha"/>
<feOffset dy="4"/>
<feGaussianBlur stdDeviation="2"/>
<feComposite in2="hardAlpha" operator="out"/>
<feColorMatrix type="matrix" values="0 0 0 0 0 0 0 0 0 0 0 0 0 0 0 0 0 0 0.25 0"/>
<feBlend mode="normal" in2="BackgroundImageFix" result="effect1_dropShadow_141_316"/>
<feBlend mode="normal" in="SourceGraphic" in2="effect1_dropShadow_141_316" result="shape"/>
</filter>
<filter id="filter12_d_141_316" x="217.284" y="29.6163" width="23.4714" height="21.3572" filterUnits="userSpaceOnUse" color-interpolation-filters="sRGB">
<feFlood flood-opacity="0" result="BackgroundImageFix"/>
<feColorMatrix in="SourceAlpha" type="matrix" values="0 0 0 0 0 0 0 0 0 0 0 0 0 0 0 0 0 0 127 0" result="hardAlpha"/>
<feOffset dy="4"/>
<feGaussianBlur stdDeviation="2"/>
<feComposite in2="hardAlpha" operator="out"/>
<feColorMatrix type="matrix" values="0 0 0 0 0 0 0 0 0 0 0 0 0 0 0 0 0 0 0.25 0"/>
<feBlend mode="normal" in2="BackgroundImageFix" result="effect1_dropShadow_141_316"/>
<feBlend mode="normal" in="SourceGraphic" in2="effect1_dropShadow_141_316" result="shape"/>
</filter>
<filter id="filter13_d_141_316" x="218.925" y="28.3862" width="20.8453" height="23.7075" filterUnits="userSpaceOnUse" color-interpolation-filters="sRGB">
<feFlood flood-opacity="0" result="BackgroundImageFix"/>
<feColorMatrix in="SourceAlpha" type="matrix" values="0 0 0 0 0 0 0 0 0 0 0 0 0 0 0 0 0 0 127 0" result="hardAlpha"/>
<feOffset dy="4"/>
<feGaussianBlur stdDeviation="2"/>
<feComposite in2="hardAlpha" operator="out"/>
<feColorMatrix type="matrix" values="0 0 0 0 0 0 0 0 0 0 0 0 0 0 0 0 0 0 0.25 0"/>
<feBlend mode="normal" in2="BackgroundImageFix" result="effect1_dropShadow_141_316"/>
<feBlend mode="normal" in="SourceGraphic" in2="effect1_dropShadow_141_316" result="shape"/>
</filter>
<filter id="filter14_d_141_316" x="128.037" y="62.8786" width="14.5854" height="13.6289" filterUnits="userSpaceOnUse" color-interpolation-filters="sRGB">
<feFlood flood-opacity="0" result="BackgroundImageFix"/>
<feColorMatrix in="SourceAlpha" type="matrix" values="0 0 0 0 0 0 0 0 0 0 0 0 0 0 0 0 0 0 127 0" result="hardAlpha"/>
<feOffset dy="4"/>
<feGaussianBlur stdDeviation="2"/>
<feComposite in2="hardAlpha" operator="out"/>
<feColorMatrix type="matrix" values="0 0 0 0 0 0 0 0 0 0 0 0 0 0 0 0 0 0 0.25 0"/>
<feBlend mode="normal" in2="BackgroundImageFix" result="effect1_dropShadow_141_316"/>
<feBlend mode="normal" in="SourceGraphic" in2="effect1_dropShadow_141_316" result="shape"/>
</filter>
<filter id="filter15_d_141_316" x="128.764" y="62.2921" width="13.3801" height="14.5207" filterUnits="userSpaceOnUse" color-interpolation-filters="sRGB">
<feFlood flood-opacity="0" result="BackgroundImageFix"/>
<feColorMatrix in="SourceAlpha" type="matrix" values="0 0 0 0 0 0 0 0 0 0 0 0 0 0 0 0 0 0 127 0" result="hardAlpha"/>
<feOffset dy="4"/>
<feGaussianBlur stdDeviation="2"/>
<feComposite in2="hardAlpha" operator="out"/>
<feColorMatrix type="matrix" values="0 0 0 0 0 0 0 0 0 0 0 0 0 0 0 0 0 0 0.25 0"/>
<feBlend mode="normal" in2="BackgroundImageFix" result="effect1_dropShadow_141_316"/>
<feBlend mode="normal" in="SourceGraphic" in2="effect1_dropShadow_141_316" result="shape"/>
</filter>
<filter id="filter16_d_141_316" x="222.354" y="62.8786" width="14.5854" height="13.6289" filterUnits="userSpaceOnUse" color-interpolation-filters="sRGB">
<feFlood flood-opacity="0" result="BackgroundImageFix"/>
<feColorMatrix in="SourceAlpha" type="matrix" values="0 0 0 0 0 0 0 0 0 0 0 0 0 0 0 0 0 0 127 0" result="hardAlpha"/>
<feOffset dy="4"/>
<feGaussianBlur stdDeviation="2"/>
<feComposite in2="hardAlpha" operator="out"/>
<feColorMatrix type="matrix" values="0 0 0 0 0 0 0 0 0 0 0 0 0 0 0 0 0 0 0.25 0"/>
<feBlend mode="normal" in2="BackgroundImageFix" result="effect1_dropShadow_141_316"/>
<feBlend mode="normal" in="SourceGraphic" in2="effect1_dropShadow_141_316" result="shape"/>
</filter>
<filter id="filter17_d_141_316" x="223.081" y="62.2921" width="13.3801" height="14.5207" filterUnits="userSpaceOnUse" color-interpolation-filters="sRGB">
<feFlood flood-opacity="0" result="BackgroundImageFix"/>
<feColorMatrix in="SourceAlpha" type="matrix" values="0 0 0 0 0 0 0 0 0 0 0 0 0 0 0 0 0 0 127 0" result="hardAlpha"/>
<feOffset dy="4"/>
<feGaussianBlur stdDeviation="2"/>
<feComposite in2="hardAlpha" operator="out"/>
<feColorMatrix type="matrix" values="0 0 0 0 0 0 0 0 0 0 0 0 0 0 0 0 0 0 0.25 0"/>
<feBlend mode="normal" in2="BackgroundImageFix" result="effect1_dropShadow_141_316"/>
<feBlend mode="normal" in="SourceGraphic" in2="effect1_dropShadow_141_316" result="shape"/>
</filter>
</defs>
</svg>
