<svg width="360" height="137" viewBox="0 0 360 137" fill="none" xmlns="http://www.w3.org/2000/svg">
<g filter="url(#filter0_d_139_185)">
<path d="M356.292 105.807C356.292 119.599 336.697 122.226 333.064 108.922L324.683 78.2331C322.649 70.7839 314.401 66.9567 307.399 70.2134V70.2134C295.297 75.8424 299.309 93.9841 312.657 93.9841H344.469C350.999 93.9841 356.292 99.2774 356.292 105.807V105.807Z" fill="#FFCBDE"/>
<path d="M333.546 108.79L329.64 94.4841H344.469C350.723 94.4841 355.792 99.5536 355.792 105.807C355.792 119.015 337.026 121.532 333.546 108.79ZM328.33 93.4841H312.657C299.845 93.4841 295.993 76.07 307.61 70.6667C314.331 67.5407 322.248 71.2143 324.201 78.3649L328.33 93.4841Z" stroke="#9B355A"/>
</g>
<g filter="url(#filter1_d_139_185)">
<path d="M318.532 122.145C304.762 122.902 301.063 103.48 314.148 99.1221L344.33 89.0701C351.656 86.6301 355.025 78.1843 351.389 71.3719V71.3719C345.104 59.5965 327.21 64.5987 327.943 77.9262L329.689 109.691C330.047 116.21 325.052 121.786 318.532 122.145V122.145Z" fill="#FFCBDE"/>
<path d="M314.306 99.5964L328.376 94.9106L329.189 109.718C329.533 115.962 324.749 121.302 318.505 121.645C305.317 122.37 301.774 103.77 314.306 99.5964ZM329.302 93.5479L328.442 77.8987C327.739 65.1058 344.915 60.3042 350.948 71.6073C354.438 78.1465 351.205 86.2535 344.172 88.5957L329.302 93.5479Z" stroke="#9B355A"/>
</g>
<rect x="333.792" y="98.4841" width="9" height="9" rx="4.5" transform="rotate(180 333.792 98.4841)" fill="#BF5F82" stroke="#9B355A"/>
<g filter="url(#filter2_d_139_185)">
<path d="M205.104 107.544C205.104 115.564 193.559 116.78 191.888 108.936L188.065 90.9875C186.898 85.5112 180.695 82.8031 175.886 85.6707V85.6707C168.757 89.9218 171.771 100.863 180.071 100.863H198.423C202.113 100.863 205.104 103.854 205.104 107.544V107.544Z" fill="#FFCBDE"/>
<path d="M192.377 108.832L190.786 101.363H198.423C201.837 101.363 204.604 104.13 204.604 107.544C204.604 114.964 193.923 116.089 192.377 108.832ZM189.55 100.363H180.071C172.279 100.363 169.449 90.0912 176.142 86.1002C180.657 83.408 186.481 85.9505 187.576 91.0917L189.55 100.363Z" stroke="#9B355A"/>
</g>
<g filter="url(#filter3_d_139_185)">
<path d="M182.983 120.713C174.059 121.342 171.409 109.01 179.707 105.467L199.479 97.0252C203.192 95.4398 204.98 91.1507 203.455 87.4876V87.4876C200.392 80.1291 189.31 82.8848 189.655 90.9195L190.568 112.217C190.756 116.601 187.36 120.404 182.983 120.713V120.713Z" fill="#FFCBDE"/>
<path d="M179.892 105.927L189.62 101.774L190.069 112.252C190.245 116.36 187.063 119.924 182.962 120.213C174.599 120.802 172.116 109.247 179.892 105.927ZM190.557 100.296L190.153 90.8844C189.833 83.4087 200.144 80.8447 202.994 87.6913C204.413 91.0994 202.749 95.0901 199.294 96.5652L190.557 100.296Z" stroke="#9B355A"/>
</g>
<rect x="192.571" y="103.869" width="4.46964" height="6.01214" rx="2.23482" transform="rotate(180 192.571 103.869)" fill="#BF5F82" stroke="#9B355A"/>
<g filter="url(#filter4_d_139_185)">
<path d="M295.463 114.404C295.463 120.014 287.393 120.881 286.201 115.399L283.474 102.855C282.657 99.0951 278.408 97.228 275.085 99.1691V99.1691C270.097 102.084 272.164 109.72 277.942 109.72H290.778C293.365 109.72 295.463 111.817 295.463 114.404V114.404Z" fill="#FFCBDE"/>
<path d="M286.69 115.293L285.587 110.22H290.778C293.089 110.22 294.963 112.093 294.963 114.404C294.963 119.415 287.755 120.19 286.69 115.293ZM284.346 109.22H277.942C272.675 109.22 270.79 102.258 275.338 99.6008C278.367 97.8312 282.241 99.5333 282.986 102.961L284.346 109.22Z" stroke="#9B355A"/>
</g>
<g filter="url(#filter5_d_139_185)">
<path d="M280.008 123.381C273.82 123.808 271.999 115.24 277.766 112.827L291.456 107.1C294.085 106 295.347 102.967 294.251 100.386V100.386C292.074 95.264 284.358 97.1986 284.603 102.804L285.247 117.516C285.379 120.546 283.034 123.172 280.008 123.381V123.381Z" fill="#FFCBDE"/>
<path d="M277.948 113.288L284.442 110.572L284.748 117.551C284.868 120.305 282.737 122.691 279.987 122.881C274.361 123.27 272.707 115.481 277.948 113.288ZM285.379 109.105L285.102 102.77C284.881 97.7213 291.831 95.979 293.79 100.591C294.778 102.916 293.641 105.648 291.274 106.639L285.379 109.105Z" stroke="#9B355A"/>
</g>
<rect x="286.507" y="111.634" width="2.84353" height="3.82803" rx="1.42176" transform="rotate(180 286.507 111.634)" fill="#BF5F82" stroke="#9B355A"/>
<g filter="url(#filter6_d_139_185)">
<path d="M160.292 85.8072C160.292 99.5986 140.697 102.226 137.064 88.9217L128.683 58.2331C126.649 50.7839 118.401 46.9567 111.399 50.2134V50.2134C99.2968 55.8424 103.309 73.9841 116.657 73.9841H148.469C154.999 73.9841 160.292 79.2774 160.292 85.8072V85.8072Z" fill="#FFCBDE"/>
<path d="M137.546 88.79L133.64 74.4841H148.469C154.723 74.4841 159.792 79.5536 159.792 85.8072C159.792 99.0154 141.026 101.532 137.546 88.79ZM132.33 73.4841H116.657C103.845 73.4841 99.9931 56.07 111.61 50.6667C118.331 47.5407 126.248 51.2143 128.201 58.3649L132.33 73.4841Z" stroke="#9B355A"/>
</g>
<g filter="url(#filter7_d_139_185)">
<path d="M122.532 102.145C108.762 102.902 105.063 83.4799 118.148 79.1221L148.33 69.0701C155.656 66.6301 159.025 58.1843 155.389 51.3719V51.3719C149.104 39.5965 131.21 44.5987 131.943 57.9262L133.689 89.6905C134.047 96.2104 129.052 101.786 122.532 102.145V102.145Z" fill="#FFCBDE"/>
<path d="M118.306 79.5964L132.376 74.9106L133.189 89.718C133.533 95.9621 128.749 101.302 122.505 101.645C109.317 102.37 105.774 83.77 118.306 79.5964ZM133.302 73.5479L132.442 57.8987C131.739 45.1058 148.915 40.3042 154.948 51.6073C158.438 58.1465 155.205 66.2535 148.172 68.5957L133.302 73.5479Z" stroke="#9B355A"/>
</g>
<rect x="137.792" y="78.4841" width="9" height="9" rx="4.5" transform="rotate(180 137.792 78.4841)" fill="#BF5F82" stroke="#9B355A"/>
<g filter="url(#filter8_d_139_185)">
<path d="M64.2924 105.807C64.2924 119.599 44.6969 122.226 41.0638 108.922L32.6835 78.2331C30.6492 70.7839 22.4011 66.9567 15.3994 70.2134V70.2134C3.29685 75.8424 7.30941 93.9841 20.657 93.9841H52.4693C58.999 93.9841 64.2924 99.2774 64.2924 105.807V105.807Z" fill="#FFCBDE"/>
<path d="M41.5461 108.79L37.6395 94.4841H52.4693C58.7228 94.4841 63.7924 99.5536 63.7924 105.807C63.7924 119.015 45.0256 121.532 41.5461 108.79ZM36.3298 93.4841H20.657C7.84474 93.4841 3.9931 76.07 15.6102 70.6667C22.3312 67.5407 30.2485 71.2143 32.2011 78.3649L36.3298 93.4841Z" stroke="#9B355A"/>
</g>
<g filter="url(#filter9_d_139_185)">
<path d="M26.5323 122.145C12.7616 122.902 9.06266 103.48 22.1476 99.1221L52.33 89.0701C59.6564 86.6301 63.025 78.1843 59.389 71.3719V71.3719C53.1042 59.5965 35.2102 64.5987 35.9427 77.9262L37.6887 109.691C38.047 116.21 33.0522 121.786 26.5323 122.145V122.145Z" fill="#FFCBDE"/>
<path d="M22.3055 99.5964L36.3755 94.9106L37.1894 109.718C37.5326 115.962 32.749 121.302 26.5048 121.645C13.3165 122.37 9.77401 103.77 22.3055 99.5964ZM37.3021 93.5479L36.442 77.8987C35.7388 65.1058 52.9152 60.3042 58.9479 71.6073C62.4381 78.1465 59.2046 86.2535 52.172 88.5957L37.3021 93.5479Z" stroke="#9B355A"/>
</g>
<rect x="41.7924" y="98.4841" width="9" height="9" rx="4.5" transform="rotate(180 41.7924 98.4841)" fill="#BF5F82" stroke="#9B355A"/>
<g filter="url(#filter10_d_139_185)">
<path d="M267.292 85.8072C267.292 99.5986 247.697 102.226 244.064 88.9217L235.683 58.2331C233.649 50.7839 225.401 46.9567 218.399 50.2134V50.2134C206.297 55.8424 210.309 73.9841 223.657 73.9841H255.469C261.999 73.9841 267.292 79.2774 267.292 85.8072V85.8072Z" fill="#FFCBDE"/>
<path d="M244.546 88.79L240.64 74.4841H255.469C261.723 74.4841 266.792 79.5536 266.792 85.8072C266.792 99.0154 248.026 101.532 244.546 88.79ZM239.33 73.4841H223.657C210.845 73.4841 206.993 56.07 218.61 50.6667C225.331 47.5407 233.248 51.2143 235.201 58.3649L239.33 73.4841Z" stroke="#9B355A"/>
</g>
<g filter="url(#filter11_d_139_185)">
<path d="M229.532 102.145C215.762 102.902 212.063 83.4799 225.148 79.1221L255.33 69.0701C262.656 66.6301 266.025 58.1843 262.389 51.3719V51.3719C256.104 39.5965 238.21 44.5987 238.943 57.9262L240.689 89.6905C241.047 96.2104 236.052 101.786 229.532 102.145V102.145Z" fill="#FFCBDE"/>
<path d="M225.306 79.5964L239.376 74.9106L240.189 89.718C240.533 95.9621 235.749 101.302 229.505 101.645C216.317 102.37 212.774 83.77 225.306 79.5964ZM240.302 73.5479L239.442 57.8987C238.739 45.1058 255.915 40.3042 261.948 51.6073C265.438 58.1465 262.205 66.2535 255.172 68.5957L240.302 73.5479Z" stroke="#9B355A"/>
</g>
<rect x="244.792" y="78.4841" width="9" height="9" rx="4.5" transform="rotate(180 244.792 78.4841)" fill="#BF5F82" stroke="#9B355A"/>
<g filter="url(#filter12_d_139_185)">
<path d="M84.0244 57.6095C84.0244 61.0068 79.187 61.6332 78.3217 58.3479L76.3308 50.789C75.8303 48.8887 73.7211 47.9164 71.9511 48.77V48.77C68.9586 50.213 69.9864 54.7103 73.3086 54.7103H81.1252C82.7264 54.7103 84.0244 56.0083 84.0244 57.6095V57.6095Z" fill="#FFCBDE"/>
<path d="M78.8052 58.2205L78.0124 55.2103H81.1252C82.4503 55.2103 83.5244 56.2845 83.5244 57.6095C83.5244 60.4209 79.5212 60.9392 78.8052 58.2205ZM76.7149 54.2103H73.3086C70.5179 54.2103 69.6546 50.4325 72.1682 49.2203C73.6551 48.5033 75.4269 49.3201 75.8473 50.9164L76.7149 54.2103Z" stroke="#9B355A"/>
</g>
<g filter="url(#filter13_d_139_185)">
<path d="M74.725 61.8371C71.2784 62.0335 70.3411 57.1849 73.6076 56.057L81.1653 53.4473C82.936 52.8359 83.7574 50.7965 82.9022 49.1352V49.1352C81.3912 46.1998 76.9383 47.4209 77.1134 50.7226L77.5362 58.6987C77.6231 60.3386 76.3645 61.7437 74.725 61.8371V61.8371Z" fill="#FFCBDE"/>
<path d="M73.7691 56.5297L76.8639 55.461L77.037 58.7272C77.1093 60.0913 76.0624 61.2601 74.6986 61.3378C71.8315 61.5012 71.0518 57.468 73.7691 56.5297ZM77.7922 54.0836L77.6125 50.6941C77.466 47.9307 81.1929 46.9087 82.4576 49.3655C83.1734 50.756 82.4859 52.4629 81.0039 52.9746L77.7922 54.0836Z" stroke="#9B355A"/>
</g>
<rect x="78.1581" y="55.4748" width="1.43916" height="1.52897" rx="0.719581" transform="rotate(180 78.1581 55.4748)" fill="#BF5F82" stroke="#9B355A"/>
<g filter="url(#filter14_d_139_185)">
<path d="M292.024 56.6095C292.024 60.0068 287.187 60.6332 286.322 57.3479L284.331 49.789C283.83 47.8887 281.721 46.9164 279.951 47.77V47.77C276.959 49.213 277.986 53.7103 281.309 53.7103H289.125C290.726 53.7103 292.024 55.0083 292.024 56.6095V56.6095Z" fill="#FFCBDE"/>
<path d="M286.805 57.2205L286.012 54.2103H289.125C290.45 54.2103 291.524 55.2845 291.524 56.6095C291.524 59.4209 287.521 59.9392 286.805 57.2205ZM284.715 53.2103H281.309C278.518 53.2103 277.655 49.4325 280.168 48.2203C281.655 47.5033 283.427 48.3201 283.847 49.9164L284.715 53.2103Z" stroke="#9B355A"/>
</g>
<g filter="url(#filter15_d_139_185)">
<path d="M282.725 60.8371C279.278 61.0335 278.341 56.1849 281.608 55.057L289.165 52.4473C290.936 51.8359 291.757 49.7965 290.902 48.1352V48.1352C289.391 45.1998 284.938 46.4209 285.113 49.7226L285.536 57.6987C285.623 59.3386 284.365 60.7437 282.725 60.8371V60.8371Z" fill="#FFCBDE"/>
<path d="M281.769 55.5297L284.864 54.461L285.037 57.7272C285.109 59.0913 284.062 60.2601 282.699 60.3378C279.832 60.5012 279.052 56.468 281.769 55.5297ZM285.792 53.0836L285.613 49.6941C285.466 46.9307 289.193 45.9087 290.458 48.3655C291.173 49.756 290.486 51.4629 289.004 51.9746L285.792 53.0836Z" stroke="#9B355A"/>
</g>
<rect x="286.158" y="54.4748" width="1.43916" height="1.52897" rx="0.719581" transform="rotate(180 286.158 54.4748)" fill="#BF5F82" stroke="#9B355A"/>
<g filter="url(#filter16_d_139_185)">
<path d="M103.226 119.627C103.226 125.991 94.1059 127.044 92.6553 120.848L89.3338 106.66C88.4017 102.679 83.9376 100.676 80.3435 102.625V102.625C74.693 105.691 76.8705 114.271 83.2991 114.271H97.8702C100.828 114.271 103.226 116.669 103.226 119.627V119.627Z" fill="#FFCBDE"/>
<path d="M93.1421 120.734L91.7461 114.771H97.8702C100.552 114.771 102.726 116.945 102.726 119.627C102.726 125.397 94.4573 126.352 93.1421 120.734ZM90.485 113.771H83.2991C77.3891 113.771 75.3872 105.883 80.5819 103.065C83.8861 101.272 87.99 103.114 88.8469 106.774L90.485 113.771Z" stroke="#9B355A"/>
</g>
<g filter="url(#filter17_d_139_185)">
<path d="M85.7638 128.884C78.9654 129.32 77.0297 119.845 83.4108 117.366L98.3791 111.551C101.49 110.343 102.967 106.761 101.594 103.759V103.759C98.9872 98.0627 90.386 100.289 90.6826 106.583L91.4348 122.545C91.5898 125.835 89.0509 128.673 85.7638 128.884V128.884Z" fill="#FFCBDE"/>
<path d="M83.5846 117.832L90.5841 115.113L90.9358 122.577C91.0779 125.592 88.7518 128.192 85.7403 128.385C79.5118 128.784 77.7384 120.103 83.5846 117.832ZM91.5177 113.683L91.1816 106.551C90.9109 100.807 98.7603 98.7754 101.139 103.974C102.393 106.713 101.044 109.982 98.2054 111.085L91.5177 113.683Z" stroke="#9B355A"/>
</g>
<rect x="92.9694" y="116.358" width="3.43484" height="4.17289" rx="1.71742" transform="rotate(180 92.9694 116.358)" fill="#BF5F82" stroke="#9B355A"/>
<defs>
<filter id="filter0_d_139_185" x="296.173" y="69.0444" width="64.1196" height="56.5943" filterUnits="userSpaceOnUse" color-interpolation-filters="sRGB">
<feFlood flood-opacity="0" result="BackgroundImageFix"/>
<feColorMatrix in="SourceAlpha" type="matrix" values="0 0 0 0 0 0 0 0 0 0 0 0 0 0 0 0 0 0 127 0" result="hardAlpha"/>
<feOffset dy="4"/>
<feGaussianBlur stdDeviation="2"/>
<feComposite in2="hardAlpha" operator="out"/>
<feColorMatrix type="matrix" values="0 0 0 0 0 0 0 0 0 0 0 0 0 0 0 0 0 0 0.25 0"/>
<feBlend mode="normal" in2="BackgroundImageFix" result="effect1_dropShadow_139_185"/>
<feBlend mode="normal" in="SourceGraphic" in2="effect1_dropShadow_139_185" result="shape"/>
</filter>
<filter id="filter1_d_139_185" x="302.044" y="64.7489" width="54.8192" height="65.4173" filterUnits="userSpaceOnUse" color-interpolation-filters="sRGB">
<feFlood flood-opacity="0" result="BackgroundImageFix"/>
<feColorMatrix in="SourceAlpha" type="matrix" values="0 0 0 0 0 0 0 0 0 0 0 0 0 0 0 0 0 0 127 0" result="hardAlpha"/>
<feOffset dy="4"/>
<feGaussianBlur stdDeviation="2"/>
<feComposite in2="hardAlpha" operator="out"/>
<feColorMatrix type="matrix" values="0 0 0 0 0 0 0 0 0 0 0 0 0 0 0 0 0 0 0.25 0"/>
<feBlend mode="normal" in2="BackgroundImageFix" result="effect1_dropShadow_139_185"/>
<feBlend mode="normal" in="SourceGraphic" in2="effect1_dropShadow_139_185" result="shape"/>
</filter>
<filter id="filter2_d_139_185" x="167.885" y="84.5115" width="41.2197" height="37.7177" filterUnits="userSpaceOnUse" color-interpolation-filters="sRGB">
<feFlood flood-opacity="0" result="BackgroundImageFix"/>
<feColorMatrix in="SourceAlpha" type="matrix" values="0 0 0 0 0 0 0 0 0 0 0 0 0 0 0 0 0 0 127 0" result="hardAlpha"/>
<feOffset dy="4"/>
<feGaussianBlur stdDeviation="2"/>
<feComposite in2="hardAlpha" operator="out"/>
<feColorMatrix type="matrix" values="0 0 0 0 0 0 0 0 0 0 0 0 0 0 0 0 0 0 0.25 0"/>
<feBlend mode="normal" in2="BackgroundImageFix" result="effect1_dropShadow_139_185"/>
<feBlend mode="normal" in="SourceGraphic" in2="effect1_dropShadow_139_185" result="shape"/>
</filter>
<filter id="filter3_d_139_185" x="170.698" y="83.2026" width="37.3016" height="45.5333" filterUnits="userSpaceOnUse" color-interpolation-filters="sRGB">
<feFlood flood-opacity="0" result="BackgroundImageFix"/>
<feColorMatrix in="SourceAlpha" type="matrix" values="0 0 0 0 0 0 0 0 0 0 0 0 0 0 0 0 0 0 127 0" result="hardAlpha"/>
<feOffset dy="4"/>
<feGaussianBlur stdDeviation="2"/>
<feComposite in2="hardAlpha" operator="out"/>
<feColorMatrix type="matrix" values="0 0 0 0 0 0 0 0 0 0 0 0 0 0 0 0 0 0 0.25 0"/>
<feBlend mode="normal" in2="BackgroundImageFix" result="effect1_dropShadow_139_185"/>
<feBlend mode="normal" in="SourceGraphic" in2="effect1_dropShadow_139_185" result="shape"/>
</filter>
<filter id="filter4_d_139_185" x="268.27" y="98.3918" width="31.1924" height="28.6984" filterUnits="userSpaceOnUse" color-interpolation-filters="sRGB">
<feFlood flood-opacity="0" result="BackgroundImageFix"/>
<feColorMatrix in="SourceAlpha" type="matrix" values="0 0 0 0 0 0 0 0 0 0 0 0 0 0 0 0 0 0 127 0" result="hardAlpha"/>
<feOffset dy="4"/>
<feGaussianBlur stdDeviation="2"/>
<feComposite in2="hardAlpha" operator="out"/>
<feColorMatrix type="matrix" values="0 0 0 0 0 0 0 0 0 0 0 0 0 0 0 0 0 0 0.25 0"/>
<feBlend mode="normal" in2="BackgroundImageFix" result="effect1_dropShadow_139_185"/>
<feBlend mode="normal" in="SourceGraphic" in2="effect1_dropShadow_139_185" result="shape"/>
</filter>
<filter id="filter5_d_139_185" x="270.276" y="97.4099" width="28.37" height="33.9862" filterUnits="userSpaceOnUse" color-interpolation-filters="sRGB">
<feFlood flood-opacity="0" result="BackgroundImageFix"/>
<feColorMatrix in="SourceAlpha" type="matrix" values="0 0 0 0 0 0 0 0 0 0 0 0 0 0 0 0 0 0 127 0" result="hardAlpha"/>
<feOffset dy="4"/>
<feGaussianBlur stdDeviation="2"/>
<feComposite in2="hardAlpha" operator="out"/>
<feColorMatrix type="matrix" values="0 0 0 0 0 0 0 0 0 0 0 0 0 0 0 0 0 0 0.25 0"/>
<feBlend mode="normal" in2="BackgroundImageFix" result="effect1_dropShadow_139_185"/>
<feBlend mode="normal" in="SourceGraphic" in2="effect1_dropShadow_139_185" result="shape"/>
</filter>
<filter id="filter6_d_139_185" x="100.173" y="49.0444" width="64.1196" height="56.5943" filterUnits="userSpaceOnUse" color-interpolation-filters="sRGB">
<feFlood flood-opacity="0" result="BackgroundImageFix"/>
<feColorMatrix in="SourceAlpha" type="matrix" values="0 0 0 0 0 0 0 0 0 0 0 0 0 0 0 0 0 0 127 0" result="hardAlpha"/>
<feOffset dy="4"/>
<feGaussianBlur stdDeviation="2"/>
<feComposite in2="hardAlpha" operator="out"/>
<feColorMatrix type="matrix" values="0 0 0 0 0 0 0 0 0 0 0 0 0 0 0 0 0 0 0.25 0"/>
<feBlend mode="normal" in2="BackgroundImageFix" result="effect1_dropShadow_139_185"/>
<feBlend mode="normal" in="SourceGraphic" in2="effect1_dropShadow_139_185" result="shape"/>
</filter>
<filter id="filter7_d_139_185" x="106.044" y="44.7489" width="54.8192" height="65.4173" filterUnits="userSpaceOnUse" color-interpolation-filters="sRGB">
<feFlood flood-opacity="0" result="BackgroundImageFix"/>
<feColorMatrix in="SourceAlpha" type="matrix" values="0 0 0 0 0 0 0 0 0 0 0 0 0 0 0 0 0 0 127 0" result="hardAlpha"/>
<feOffset dy="4"/>
<feGaussianBlur stdDeviation="2"/>
<feComposite in2="hardAlpha" operator="out"/>
<feColorMatrix type="matrix" values="0 0 0 0 0 0 0 0 0 0 0 0 0 0 0 0 0 0 0.25 0"/>
<feBlend mode="normal" in2="BackgroundImageFix" result="effect1_dropShadow_139_185"/>
<feBlend mode="normal" in="SourceGraphic" in2="effect1_dropShadow_139_185" result="shape"/>
</filter>
<filter id="filter8_d_139_185" x="4.17273" y="69.0444" width="64.1196" height="56.5943" filterUnits="userSpaceOnUse" color-interpolation-filters="sRGB">
<feFlood flood-opacity="0" result="BackgroundImageFix"/>
<feColorMatrix in="SourceAlpha" type="matrix" values="0 0 0 0 0 0 0 0 0 0 0 0 0 0 0 0 0 0 127 0" result="hardAlpha"/>
<feOffset dy="4"/>
<feGaussianBlur stdDeviation="2"/>
<feComposite in2="hardAlpha" operator="out"/>
<feColorMatrix type="matrix" values="0 0 0 0 0 0 0 0 0 0 0 0 0 0 0 0 0 0 0.25 0"/>
<feBlend mode="normal" in2="BackgroundImageFix" result="effect1_dropShadow_139_185"/>
<feBlend mode="normal" in="SourceGraphic" in2="effect1_dropShadow_139_185" result="shape"/>
</filter>
<filter id="filter9_d_139_185" x="10.0437" y="64.7489" width="54.8192" height="65.4173" filterUnits="userSpaceOnUse" color-interpolation-filters="sRGB">
<feFlood flood-opacity="0" result="BackgroundImageFix"/>
<feColorMatrix in="SourceAlpha" type="matrix" values="0 0 0 0 0 0 0 0 0 0 0 0 0 0 0 0 0 0 127 0" result="hardAlpha"/>
<feOffset dy="4"/>
<feGaussianBlur stdDeviation="2"/>
<feComposite in2="hardAlpha" operator="out"/>
<feColorMatrix type="matrix" values="0 0 0 0 0 0 0 0 0 0 0 0 0 0 0 0 0 0 0.25 0"/>
<feBlend mode="normal" in2="BackgroundImageFix" result="effect1_dropShadow_139_185"/>
<feBlend mode="normal" in="SourceGraphic" in2="effect1_dropShadow_139_185" result="shape"/>
</filter>
<filter id="filter10_d_139_185" x="207.173" y="49.0444" width="64.1196" height="56.5943" filterUnits="userSpaceOnUse" color-interpolation-filters="sRGB">
<feFlood flood-opacity="0" result="BackgroundImageFix"/>
<feColorMatrix in="SourceAlpha" type="matrix" values="0 0 0 0 0 0 0 0 0 0 0 0 0 0 0 0 0 0 127 0" result="hardAlpha"/>
<feOffset dy="4"/>
<feGaussianBlur stdDeviation="2"/>
<feComposite in2="hardAlpha" operator="out"/>
<feColorMatrix type="matrix" values="0 0 0 0 0 0 0 0 0 0 0 0 0 0 0 0 0 0 0.25 0"/>
<feBlend mode="normal" in2="BackgroundImageFix" result="effect1_dropShadow_139_185"/>
<feBlend mode="normal" in="SourceGraphic" in2="effect1_dropShadow_139_185" result="shape"/>
</filter>
<filter id="filter11_d_139_185" x="213.044" y="44.7489" width="54.8192" height="65.4173" filterUnits="userSpaceOnUse" color-interpolation-filters="sRGB">
<feFlood flood-opacity="0" result="BackgroundImageFix"/>
<feColorMatrix in="SourceAlpha" type="matrix" values="0 0 0 0 0 0 0 0 0 0 0 0 0 0 0 0 0 0 127 0" result="hardAlpha"/>
<feOffset dy="4"/>
<feGaussianBlur stdDeviation="2"/>
<feComposite in2="hardAlpha" operator="out"/>
<feColorMatrix type="matrix" values="0 0 0 0 0 0 0 0 0 0 0 0 0 0 0 0 0 0 0.25 0"/>
<feBlend mode="normal" in2="BackgroundImageFix" result="effect1_dropShadow_139_185"/>
<feBlend mode="normal" in="SourceGraphic" in2="effect1_dropShadow_139_185" result="shape"/>
</filter>
<filter id="filter12_d_139_185" x="66.1787" y="48.4581" width="21.8457" height="20.0526" filterUnits="userSpaceOnUse" color-interpolation-filters="sRGB">
<feFlood flood-opacity="0" result="BackgroundImageFix"/>
<feColorMatrix in="SourceAlpha" type="matrix" values="0 0 0 0 0 0 0 0 0 0 0 0 0 0 0 0 0 0 127 0" result="hardAlpha"/>
<feOffset dy="4"/>
<feGaussianBlur stdDeviation="2"/>
<feComposite in2="hardAlpha" operator="out"/>
<feColorMatrix type="matrix" values="0 0 0 0 0 0 0 0 0 0 0 0 0 0 0 0 0 0 0.25 0"/>
<feBlend mode="normal" in2="BackgroundImageFix" result="effect1_dropShadow_139_185"/>
<feBlend mode="normal" in="SourceGraphic" in2="effect1_dropShadow_139_185" result="shape"/>
</filter>
<filter id="filter13_d_139_185" x="67.5907" y="47.4742" width="19.6519" height="22.3687" filterUnits="userSpaceOnUse" color-interpolation-filters="sRGB">
<feFlood flood-opacity="0" result="BackgroundImageFix"/>
<feColorMatrix in="SourceAlpha" type="matrix" values="0 0 0 0 0 0 0 0 0 0 0 0 0 0 0 0 0 0 127 0" result="hardAlpha"/>
<feOffset dy="4"/>
<feGaussianBlur stdDeviation="2"/>
<feComposite in2="hardAlpha" operator="out"/>
<feColorMatrix type="matrix" values="0 0 0 0 0 0 0 0 0 0 0 0 0 0 0 0 0 0 0.25 0"/>
<feBlend mode="normal" in2="BackgroundImageFix" result="effect1_dropShadow_139_185"/>
<feBlend mode="normal" in="SourceGraphic" in2="effect1_dropShadow_139_185" result="shape"/>
</filter>
<filter id="filter14_d_139_185" x="274.179" y="47.4581" width="21.8457" height="20.0526" filterUnits="userSpaceOnUse" color-interpolation-filters="sRGB">
<feFlood flood-opacity="0" result="BackgroundImageFix"/>
<feColorMatrix in="SourceAlpha" type="matrix" values="0 0 0 0 0 0 0 0 0 0 0 0 0 0 0 0 0 0 127 0" result="hardAlpha"/>
<feOffset dy="4"/>
<feGaussianBlur stdDeviation="2"/>
<feComposite in2="hardAlpha" operator="out"/>
<feColorMatrix type="matrix" values="0 0 0 0 0 0 0 0 0 0 0 0 0 0 0 0 0 0 0.25 0"/>
<feBlend mode="normal" in2="BackgroundImageFix" result="effect1_dropShadow_139_185"/>
<feBlend mode="normal" in="SourceGraphic" in2="effect1_dropShadow_139_185" result="shape"/>
</filter>
<filter id="filter15_d_139_185" x="275.591" y="46.4742" width="19.6519" height="22.3687" filterUnits="userSpaceOnUse" color-interpolation-filters="sRGB">
<feFlood flood-opacity="0" result="BackgroundImageFix"/>
<feColorMatrix in="SourceAlpha" type="matrix" values="0 0 0 0 0 0 0 0 0 0 0 0 0 0 0 0 0 0 127 0" result="hardAlpha"/>
<feOffset dy="4"/>
<feGaussianBlur stdDeviation="2"/>
<feComposite in2="hardAlpha" operator="out"/>
<feColorMatrix type="matrix" values="0 0 0 0 0 0 0 0 0 0 0 0 0 0 0 0 0 0 0.25 0"/>
<feBlend mode="normal" in2="BackgroundImageFix" result="effect1_dropShadow_139_185"/>
<feBlend mode="normal" in="SourceGraphic" in2="effect1_dropShadow_139_185" result="shape"/>
</filter>
<filter id="filter16_d_139_185" x="73.0912" y="101.871" width="34.1349" height="31.1146" filterUnits="userSpaceOnUse" color-interpolation-filters="sRGB">
<feFlood flood-opacity="0" result="BackgroundImageFix"/>
<feColorMatrix in="SourceAlpha" type="matrix" values="0 0 0 0 0 0 0 0 0 0 0 0 0 0 0 0 0 0 127 0" result="hardAlpha"/>
<feOffset dy="4"/>
<feGaussianBlur stdDeviation="2"/>
<feComposite in2="hardAlpha" operator="out"/>
<feColorMatrix type="matrix" values="0 0 0 0 0 0 0 0 0 0 0 0 0 0 0 0 0 0 0.25 0"/>
<feBlend mode="normal" in2="BackgroundImageFix" result="effect1_dropShadow_139_185"/>
<feBlend mode="normal" in="SourceGraphic" in2="effect1_dropShadow_139_185" result="shape"/>
</filter>
<filter id="filter17_d_139_185" x="75.516" y="100.479" width="30.5924" height="36.4193" filterUnits="userSpaceOnUse" color-interpolation-filters="sRGB">
<feFlood flood-opacity="0" result="BackgroundImageFix"/>
<feColorMatrix in="SourceAlpha" type="matrix" values="0 0 0 0 0 0 0 0 0 0 0 0 0 0 0 0 0 0 127 0" result="hardAlpha"/>
<feOffset dy="4"/>
<feGaussianBlur stdDeviation="2"/>
<feComposite in2="hardAlpha" operator="out"/>
<feColorMatrix type="matrix" values="0 0 0 0 0 0 0 0 0 0 0 0 0 0 0 0 0 0 0.25 0"/>
<feBlend mode="normal" in2="BackgroundImageFix" result="effect1_dropShadow_139_185"/>
<feBlend mode="normal" in="SourceGraphic" in2="effect1_dropShadow_139_185" result="shape"/>
</filter>
</defs>
</svg>
