<svg width="358" height="83" viewBox="0 0 358 83" fill="none" xmlns="http://www.w3.org/2000/svg">
<g filter="url(#filter0_d_141_317)">
<path d="M92.9752 21.0897C92.9752 14.5146 102.245 13.1206 104.179 19.4048L108.694 34.0786C109.666 37.2365 113.143 38.8749 116.197 37.6144V37.6144C121.875 35.2708 120.2 26.818 114.056 26.818H98.7036C95.5399 26.818 92.9752 24.2534 92.9752 21.0897V21.0897Z" fill="#FFCBDE"/>
<path d="M103.701 19.5518L105.783 26.318H98.7036C95.816 26.318 93.4752 23.9772 93.4752 21.0897C93.4752 15.0885 101.936 13.8162 103.701 19.5518ZM107.137 27.318H114.056C119.652 27.318 121.179 35.0175 116.006 37.1523C113.224 38.3004 110.057 36.808 109.172 33.9315L107.137 27.318Z" stroke="#9B355A"/>
</g>
<g filter="url(#filter1_d_141_317)">
<path d="M111.056 14.5063C117.285 14.2024 118.902 23.0551 112.939 24.8174L99.2722 28.8561C95.5584 29.9536 93.9113 34.2571 95.9241 37.6034V37.6034C99.1581 42.9802 107.387 40.5182 107.001 34.2892L106.118 20.0229C105.938 17.1179 108.149 14.6481 111.056 14.5063V14.5063Z" fill="#FFCBDE"/>
<path d="M112.791 24.3381L106.992 26.0518L106.617 19.9985C106.454 17.3692 108.455 15.1337 111.087 15.0053C116.725 14.7303 118.188 22.7431 112.791 24.3381ZM106.072 27.3696L106.502 34.3136C106.856 40.021 99.3154 42.2769 96.3521 37.3503C94.5079 34.2841 96.0171 30.341 99.4199 29.3354L106.072 27.3696Z" stroke="#9B355A"/>
</g>
<rect x="104.339" y="25.1272" width="3.93807" height="3.3818" rx="1.6909" fill="#BF5F82" stroke="#9B355A"/>
<g filter="url(#filter2_d_141_317)">
<path d="M167.633 20.5525C167.633 16.7001 173.147 16.0476 174.046 19.7936L176.106 28.376C176.671 30.7301 179.304 31.9195 181.444 30.7873V30.7873C184.861 28.9794 183.576 23.8039 179.711 23.8039H170.884C169.089 23.8039 167.633 22.3482 167.633 20.5525V20.5525Z" fill="#FFCBDE"/>
<path d="M173.56 19.9103L174.374 23.3039H170.884C169.365 23.3039 168.133 22.0721 168.133 20.5525C168.133 17.2926 172.799 16.7404 173.56 19.9103ZM175.643 24.3039H179.711C183.055 24.3039 184.166 28.7813 181.21 30.3453C179.359 31.3248 177.081 30.2958 176.592 28.2593L175.643 24.3039Z" stroke="#9B355A"/>
</g>
<g filter="url(#filter3_d_141_317)">
<path d="M178.194 15.1287C182.265 14.8742 183.412 20.5598 179.582 22.0106L170.631 25.4022C168.721 26.1256 167.818 28.3237 168.678 30.1556V30.1556C170.284 33.5795 175.458 32.2246 175.275 28.4281L174.815 18.9045C174.72 16.9418 176.233 15.2513 178.194 15.1287V15.1287Z" fill="#FFCBDE"/>
<path d="M179.411 21.5429L175.514 23.0195L175.314 18.8733C175.232 17.1864 176.533 15.7335 178.218 15.6281C181.717 15.4094 182.703 20.296 179.411 21.5429ZM174.582 24.4378L174.776 28.4593C174.933 31.7081 170.505 32.8676 169.13 29.9376C168.395 28.37 169.168 26.489 170.801 25.8699L174.582 24.4378Z" stroke="#9B355A"/>
</g>
<rect x="174.075" y="22.7677" width="1.70095" height="2.07258" rx="0.850473" fill="#BF5F82" stroke="#9B355A"/>
<g filter="url(#filter4_d_141_317)">
<path d="M189.761 29.8533C189.761 23.2783 199.031 21.8842 200.965 28.1684L205.481 42.8423C206.452 46.0001 209.929 47.6386 212.983 46.3781V46.3781C218.662 44.0345 216.986 35.5817 210.843 35.5817H195.49C192.326 35.5817 189.761 33.017 189.761 29.8533V29.8533Z" fill="#FFCBDE"/>
<path d="M200.487 28.3155L202.569 35.0817H195.49C192.602 35.0817 190.261 32.7409 190.261 29.8533C190.261 23.8522 198.722 22.5798 200.487 28.3155ZM203.923 36.0817H210.843C216.438 36.0817 217.965 43.7812 212.792 45.9159C210.01 47.0641 206.844 45.5716 205.958 42.6952L203.923 36.0817Z" stroke="#9B355A"/>
</g>
<g filter="url(#filter5_d_141_317)">
<path d="M207.842 23.2698C214.071 22.966 215.688 31.8187 209.725 33.5809L196.058 37.6197C192.345 38.7172 190.697 43.0206 192.71 46.367V46.367C195.944 51.7438 204.173 49.2817 203.788 43.0528L202.904 28.7864C202.724 25.8815 204.935 23.4116 207.842 23.2698V23.2698Z" fill="#FFCBDE"/>
<path d="M209.577 33.1017L203.778 34.8153L203.403 28.7621C203.24 26.1328 205.241 23.8972 207.873 23.7689C213.511 23.4939 214.974 31.5066 209.577 33.1017ZM202.858 36.1331L203.288 43.0771C203.642 48.7846 196.102 51.0405 193.138 46.1139C191.294 43.0477 192.803 39.1045 196.206 38.0989L202.858 36.1331Z" stroke="#9B355A"/>
</g>
<rect x="201.125" y="33.8907" width="3.93807" height="3.3818" rx="1.6909" fill="#BF5F82" stroke="#9B355A"/>
<g filter="url(#filter6_d_141_317)">
<path d="M237.167 21.0897C237.167 14.5146 246.436 13.1206 248.37 19.4048L252.886 34.0786C253.858 37.2365 257.334 38.8749 260.389 37.6144V37.6144C266.067 35.2708 264.391 26.818 258.248 26.818H242.895C239.732 26.818 237.167 24.2534 237.167 21.0897V21.0897Z" fill="#FFCBDE"/>
<path d="M247.892 19.5518L249.975 26.318H242.895C240.008 26.318 237.667 23.9772 237.667 21.0897C237.667 15.0885 246.127 13.8162 247.892 19.5518ZM251.329 27.318H258.248C263.844 27.318 265.37 35.0175 260.198 37.1523C257.416 38.3004 254.249 36.808 253.364 33.9315L251.329 27.318Z" stroke="#9B355A"/>
</g>
<g filter="url(#filter7_d_141_317)">
<path d="M255.247 14.5063C261.477 14.2024 263.093 23.0551 257.13 24.8174L243.464 28.8561C239.75 29.9536 238.103 34.2571 240.116 37.6034V37.6034C243.35 42.9802 251.579 40.5182 251.193 34.2892L250.309 20.0229C250.129 17.1179 252.34 14.6481 255.247 14.5063V14.5063Z" fill="#FFCBDE"/>
<path d="M256.982 24.3381L251.184 26.0518L250.809 19.9985C250.646 17.3692 252.647 15.1337 255.278 15.0053C260.917 14.7303 262.38 22.7431 256.982 24.3381ZM250.264 27.3696L250.694 34.3136C251.047 40.021 243.507 42.2769 240.544 37.3503C238.7 34.2841 240.209 30.341 243.612 29.3354L250.264 27.3696Z" stroke="#9B355A"/>
</g>
<rect x="248.531" y="25.1272" width="3.93807" height="3.3818" rx="1.6909" fill="#BF5F82" stroke="#9B355A"/>
<g filter="url(#filter8_d_141_317)">
<path d="M222.285 43.3376C222.285 39.9791 227.116 39.4614 227.828 42.7437L229.456 50.2537C229.945 52.5101 232.496 53.6299 234.488 52.4629V52.4629C237.474 50.7135 236.233 46.1408 232.773 46.1408H225.088C223.54 46.1408 222.285 44.8858 222.285 43.3376V43.3376Z" fill="#FFCBDE"/>
<path d="M227.339 42.8496L227.944 45.6408H225.088C223.816 45.6408 222.785 44.6097 222.785 43.3376C222.785 40.5782 226.754 40.1528 227.339 42.8496ZM229.184 46.6408H232.773C235.723 46.6408 236.781 50.5398 234.235 52.0314C232.537 53.0266 230.362 52.0717 229.944 50.1477L229.184 46.6408Z" stroke="#9B355A"/>
</g>
<g filter="url(#filter9_d_141_317)">
<path d="M231.538 37.9453C235.247 37.6885 236.339 42.8224 232.884 44.2718L224.678 47.7142C223.107 48.3733 222.352 50.1867 223.006 51.7303V51.7303C224.306 54.7983 228.928 53.6407 228.782 50.2838L228.397 41.4621C228.317 39.6454 229.724 38.0709 231.538 37.9453V37.9453Z" fill="#FFCBDE"/>
<path d="M232.701 43.8106L229.066 45.3356L228.895 41.4276C228.828 39.8868 230.021 38.5513 231.56 38.4448C234.705 38.227 235.632 42.5813 232.701 43.8106ZM228.129 46.8041L228.283 50.3184C228.405 53.1179 224.55 54.0832 223.466 51.5246C222.92 50.2374 223.55 48.7251 224.86 48.1755L228.129 46.8041Z" stroke="#9B355A"/>
</g>
<rect x="227.844" y="45.1927" width="1.29945" height="1.89629" rx="0.649727" fill="#BF5F82" stroke="#9B355A"/>
<g filter="url(#filter10_d_141_317)">
<path d="M136.924 29.8533C136.924 23.2783 146.193 21.8842 148.127 28.1684L152.643 42.8423C153.615 46.0001 157.092 47.6386 160.146 46.3781V46.3781C165.824 44.0345 164.148 35.5817 158.005 35.5817H142.652C139.489 35.5817 136.924 33.017 136.924 29.8533V29.8533Z" fill="#FFCBDE"/>
<path d="M147.65 28.3155L149.732 35.0817H142.652C139.765 35.0817 137.424 32.7409 137.424 29.8533C137.424 23.8522 145.884 22.5798 147.65 28.3155ZM151.086 36.0817H158.005C163.601 36.0817 165.127 43.7812 159.955 45.9159C157.173 47.0641 154.006 45.5716 153.121 42.6952L151.086 36.0817Z" stroke="#9B355A"/>
</g>
<g filter="url(#filter11_d_141_317)">
<path d="M155.004 23.2698C161.234 22.966 162.85 31.8187 156.887 33.5809L143.221 37.6197C139.507 38.7172 137.86 43.0206 139.873 46.367V46.367C143.107 51.7438 151.336 49.2817 150.95 43.0528L150.067 28.7864C149.887 25.8815 152.097 23.4116 155.004 23.2698V23.2698Z" fill="#FFCBDE"/>
<path d="M156.74 33.1017L150.941 34.8153L150.566 28.7621C150.403 26.1328 152.404 23.8972 155.035 23.7689C160.674 23.4939 162.137 31.5066 156.74 33.1017ZM150.021 36.1331L150.451 43.0771C150.804 48.7846 143.264 51.0405 140.301 46.1139C138.457 43.0477 139.966 39.1045 143.369 38.0989L150.021 36.1331Z" stroke="#9B355A"/>
</g>
<rect x="148.288" y="33.8907" width="3.93807" height="3.3818" rx="1.6909" fill="#BF5F82" stroke="#9B355A"/>
<g filter="url(#filter12_d_141_317)">
<path d="M121.244 43.299C121.244 39.4943 126.643 38.7565 127.664 42.4217L130.022 50.8895C130.584 52.9057 132.814 53.9436 134.718 53.0751V53.0751C138.049 51.5559 136.966 46.5689 133.304 46.5689H124.514C122.708 46.5689 121.244 45.1049 121.244 43.299V43.299Z" fill="#FFCBDE"/>
<path d="M127.183 42.5558L128.161 46.0689H124.514C122.984 46.0689 121.744 44.8288 121.744 43.299C121.744 40.076 126.318 39.4511 127.183 42.5558ZM129.477 47.0689H133.304C136.428 47.0689 137.353 51.3239 134.51 52.6202C132.886 53.3612 130.983 52.4756 130.504 50.7554L129.477 47.0689Z" stroke="#9B355A"/>
</g>
<g filter="url(#filter13_d_141_317)">
<path d="M131.665 38.912C135.431 38.709 136.436 44.0279 132.853 45.1981L124.599 47.8935C122.557 48.5604 121.623 50.9158 122.651 52.8051V52.8051C124.407 56.0319 129.316 54.6449 129.111 50.9799L128.624 42.3059C128.525 40.5274 129.886 39.0079 131.665 38.912V38.912Z" fill="#FFCBDE"/>
<path d="M132.696 44.7228L129.322 45.8246L129.124 42.279C129.039 40.7762 130.19 39.4922 131.693 39.4112C134.875 39.2397 135.724 43.734 132.696 44.7228ZM128.397 47.1795L128.611 51.0068C128.787 54.1394 124.591 55.3249 123.09 52.5668C122.211 50.952 123.01 48.9388 124.755 48.3688L128.397 47.1795Z" stroke="#9B355A"/>
</g>
<rect x="127.847" y="45.7089" width="1.77394" height="1.71999" rx="0.859995" fill="#BF5F82" stroke="#9B355A"/>
<g filter="url(#filter14_d_141_317)">
<path d="M219.378 15.8994C219.378 14.2778 221.67 13.9449 222.131 15.4994L223.204 19.1136C223.443 19.9209 224.333 20.3387 225.107 20.0074V20.0074C226.515 19.4049 226.085 17.3051 224.554 17.3051H220.783C220.007 17.3051 219.378 16.6757 219.378 15.8994V15.8994Z" fill="#FFCBDE"/>
<path d="M221.652 15.6417L221.997 16.8051H220.783C220.283 16.8051 219.878 16.3996 219.878 15.8994C219.878 14.8546 221.354 14.6401 221.652 15.6417ZM223.337 17.8051H224.554C225.541 17.8051 225.819 19.1592 224.911 19.5478C224.411 19.7614 223.838 19.4919 223.683 18.9714L223.337 17.8051Z" stroke="#9B355A"/>
</g>
<g filter="url(#filter15_d_141_317)">
<path d="M223.828 14.1894C225.389 14.1105 225.798 16.3239 224.307 16.7807L220.885 17.8293C219.986 18.1048 219.582 19.1449 220.057 19.9633V19.9633C220.837 21.3076 222.889 20.7064 222.797 19.1606L222.583 15.5802C222.539 14.8491 223.097 14.2264 223.828 14.1894V14.1894Z" fill="#FFCBDE"/>
<path d="M224.156 16.3028L223.146 16.6126L223.082 15.5549C223.055 15.0995 223.403 14.7116 223.858 14.6885C224.831 14.6393 225.085 16.0182 224.156 16.3028ZM222.223 17.9432L222.298 19.1859C222.359 20.2061 221.004 20.6029 220.489 19.7156C220.176 19.1755 220.442 18.489 221.036 18.3071L222.223 17.9432Z" stroke="#9B355A"/>
</g>
<rect x="222.305" y="17.0279" width="0.650404" height="0.554072" rx="0.277036" fill="#BF5F82" stroke="#9B355A" stroke-width="0.554072"/>
<g filter="url(#filter16_d_141_317)">
<path d="M125.061 15.8994C125.061 14.2778 127.352 13.9449 127.814 15.4994L128.887 19.1136C129.126 19.9209 130.016 20.3387 130.79 20.0074V20.0074C132.198 19.4049 131.768 17.3051 130.236 17.3051H126.466C125.69 17.3051 125.061 16.6757 125.061 15.8994V15.8994Z" fill="#FFCBDE"/>
<path d="M127.335 15.6417L127.68 16.8051H126.466C125.966 16.8051 125.561 16.3996 125.561 15.8994C125.561 14.8546 127.037 14.6401 127.335 15.6417ZM129.02 17.8051H130.236C131.224 17.8051 131.502 19.1592 130.594 19.5478C130.094 19.7614 129.52 19.4919 129.366 18.9714L129.02 17.8051Z" stroke="#9B355A"/>
</g>
<g filter="url(#filter17_d_141_317)">
<path d="M129.511 14.1894C131.072 14.1105 131.481 16.3239 129.99 16.7807L126.568 17.8293C125.669 18.1048 125.265 19.1449 125.74 19.9633V19.9633C126.52 21.3076 128.572 20.7064 128.48 19.1606L128.266 15.5802C128.222 14.8491 128.78 14.2264 129.511 14.1894V14.1894Z" fill="#FFCBDE"/>
<path d="M129.839 16.3028L128.828 16.6126L128.765 15.5549C128.738 15.0995 129.085 14.7116 129.541 14.6885C130.513 14.6393 130.768 16.0182 129.839 16.3028ZM127.906 17.9432L127.98 19.1859C128.041 20.2061 126.687 20.6029 126.172 19.7156C125.859 19.1755 126.125 18.489 126.719 18.3071L127.906 17.9432Z" stroke="#9B355A"/>
</g>
<rect x="127.988" y="17.0279" width="0.650404" height="0.554072" rx="0.277036" fill="#BF5F82" stroke="#9B355A" stroke-width="0.554072"/>
<path d="M0 83L2.36079 63.1085C4.43875 45.6002 18.8914 32.1731 36.505 31.3871L90 29H36C16.1177 29 0 45.1178 0 65V83Z" fill="#BF5F82"/>
<path d="M358 83L355.639 63.1085C353.561 45.6002 339.109 32.1731 321.495 31.3871L268 29H322C341.882 29 358 45.1178 358 65V83Z" fill="#BF5F82"/>
<defs>
<filter id="filter0_d_141_317" x="88.9752" y="15.3564" width="34.6986" height="30.6844" filterUnits="userSpaceOnUse" color-interpolation-filters="sRGB">
<feFlood flood-opacity="0" result="BackgroundImageFix"/>
<feColorMatrix in="SourceAlpha" type="matrix" values="0 0 0 0 0 0 0 0 0 0 0 0 0 0 0 0 0 0 127 0" result="hardAlpha"/>
<feOffset dy="4"/>
<feGaussianBlur stdDeviation="2"/>
<feComposite in2="hardAlpha" operator="out"/>
<feColorMatrix type="matrix" values="0 0 0 0 0 0 0 0 0 0 0 0 0 0 0 0 0 0 0.25 0"/>
<feBlend mode="normal" in2="BackgroundImageFix" result="effect1_dropShadow_141_317"/>
<feBlend mode="normal" in="SourceGraphic" in2="effect1_dropShadow_141_317" result="shape"/>
</filter>
<filter id="filter1_d_141_317" x="91.0574" y="14.4987" width="29.605" height="34.062" filterUnits="userSpaceOnUse" color-interpolation-filters="sRGB">
<feFlood flood-opacity="0" result="BackgroundImageFix"/>
<feColorMatrix in="SourceAlpha" type="matrix" values="0 0 0 0 0 0 0 0 0 0 0 0 0 0 0 0 0 0 127 0" result="hardAlpha"/>
<feOffset dy="4"/>
<feGaussianBlur stdDeviation="2"/>
<feComposite in2="hardAlpha" operator="out"/>
<feColorMatrix type="matrix" values="0 0 0 0 0 0 0 0 0 0 0 0 0 0 0 0 0 0 0.25 0"/>
<feBlend mode="normal" in2="BackgroundImageFix" result="effect1_dropShadow_141_317"/>
<feBlend mode="normal" in="SourceGraphic" in2="effect1_dropShadow_141_317" result="shape"/>
</filter>
<filter id="filter2_d_141_317" x="163.633" y="17.2992" width="23.7903" height="21.9208" filterUnits="userSpaceOnUse" color-interpolation-filters="sRGB">
<feFlood flood-opacity="0" result="BackgroundImageFix"/>
<feColorMatrix in="SourceAlpha" type="matrix" values="0 0 0 0 0 0 0 0 0 0 0 0 0 0 0 0 0 0 127 0" result="hardAlpha"/>
<feOffset dy="4"/>
<feGaussianBlur stdDeviation="2"/>
<feComposite in2="hardAlpha" operator="out"/>
<feColorMatrix type="matrix" values="0 0 0 0 0 0 0 0 0 0 0 0 0 0 0 0 0 0 0.25 0"/>
<feBlend mode="normal" in2="BackgroundImageFix" result="effect1_dropShadow_141_317"/>
<feBlend mode="normal" in="SourceGraphic" in2="effect1_dropShadow_141_317" result="shape"/>
</filter>
<filter id="filter3_d_141_317" x="164.351" y="15.1205" width="21.5748" height="24.9996" filterUnits="userSpaceOnUse" color-interpolation-filters="sRGB">
<feFlood flood-opacity="0" result="BackgroundImageFix"/>
<feColorMatrix in="SourceAlpha" type="matrix" values="0 0 0 0 0 0 0 0 0 0 0 0 0 0 0 0 0 0 127 0" result="hardAlpha"/>
<feOffset dy="4"/>
<feGaussianBlur stdDeviation="2"/>
<feComposite in2="hardAlpha" operator="out"/>
<feColorMatrix type="matrix" values="0 0 0 0 0 0 0 0 0 0 0 0 0 0 0 0 0 0 0.25 0"/>
<feBlend mode="normal" in2="BackgroundImageFix" result="effect1_dropShadow_141_317"/>
<feBlend mode="normal" in="SourceGraphic" in2="effect1_dropShadow_141_317" result="shape"/>
</filter>
<filter id="filter4_d_141_317" x="185.761" y="24.1201" width="34.6986" height="30.6844" filterUnits="userSpaceOnUse" color-interpolation-filters="sRGB">
<feFlood flood-opacity="0" result="BackgroundImageFix"/>
<feColorMatrix in="SourceAlpha" type="matrix" values="0 0 0 0 0 0 0 0 0 0 0 0 0 0 0 0 0 0 127 0" result="hardAlpha"/>
<feOffset dy="4"/>
<feGaussianBlur stdDeviation="2"/>
<feComposite in2="hardAlpha" operator="out"/>
<feColorMatrix type="matrix" values="0 0 0 0 0 0 0 0 0 0 0 0 0 0 0 0 0 0 0.25 0"/>
<feBlend mode="normal" in2="BackgroundImageFix" result="effect1_dropShadow_141_317"/>
<feBlend mode="normal" in="SourceGraphic" in2="effect1_dropShadow_141_317" result="shape"/>
</filter>
<filter id="filter5_d_141_317" x="187.844" y="23.2622" width="29.605" height="34.062" filterUnits="userSpaceOnUse" color-interpolation-filters="sRGB">
<feFlood flood-opacity="0" result="BackgroundImageFix"/>
<feColorMatrix in="SourceAlpha" type="matrix" values="0 0 0 0 0 0 0 0 0 0 0 0 0 0 0 0 0 0 127 0" result="hardAlpha"/>
<feOffset dy="4"/>
<feGaussianBlur stdDeviation="2"/>
<feComposite in2="hardAlpha" operator="out"/>
<feColorMatrix type="matrix" values="0 0 0 0 0 0 0 0 0 0 0 0 0 0 0 0 0 0 0.25 0"/>
<feBlend mode="normal" in2="BackgroundImageFix" result="effect1_dropShadow_141_317"/>
<feBlend mode="normal" in="SourceGraphic" in2="effect1_dropShadow_141_317" result="shape"/>
</filter>
<filter id="filter6_d_141_317" x="233.167" y="15.3564" width="34.6986" height="30.6844" filterUnits="userSpaceOnUse" color-interpolation-filters="sRGB">
<feFlood flood-opacity="0" result="BackgroundImageFix"/>
<feColorMatrix in="SourceAlpha" type="matrix" values="0 0 0 0 0 0 0 0 0 0 0 0 0 0 0 0 0 0 127 0" result="hardAlpha"/>
<feOffset dy="4"/>
<feGaussianBlur stdDeviation="2"/>
<feComposite in2="hardAlpha" operator="out"/>
<feColorMatrix type="matrix" values="0 0 0 0 0 0 0 0 0 0 0 0 0 0 0 0 0 0 0.25 0"/>
<feBlend mode="normal" in2="BackgroundImageFix" result="effect1_dropShadow_141_317"/>
<feBlend mode="normal" in="SourceGraphic" in2="effect1_dropShadow_141_317" result="shape"/>
</filter>
<filter id="filter7_d_141_317" x="235.249" y="14.4987" width="29.605" height="34.062" filterUnits="userSpaceOnUse" color-interpolation-filters="sRGB">
<feFlood flood-opacity="0" result="BackgroundImageFix"/>
<feColorMatrix in="SourceAlpha" type="matrix" values="0 0 0 0 0 0 0 0 0 0 0 0 0 0 0 0 0 0 127 0" result="hardAlpha"/>
<feOffset dy="4"/>
<feGaussianBlur stdDeviation="2"/>
<feComposite in2="hardAlpha" operator="out"/>
<feColorMatrix type="matrix" values="0 0 0 0 0 0 0 0 0 0 0 0 0 0 0 0 0 0 0.25 0"/>
<feBlend mode="normal" in2="BackgroundImageFix" result="effect1_dropShadow_141_317"/>
<feBlend mode="normal" in="SourceGraphic" in2="effect1_dropShadow_141_317" result="shape"/>
</filter>
<filter id="filter8_d_141_317" x="218.285" y="40.533" width="21.8872" height="20.3978" filterUnits="userSpaceOnUse" color-interpolation-filters="sRGB">
<feFlood flood-opacity="0" result="BackgroundImageFix"/>
<feColorMatrix in="SourceAlpha" type="matrix" values="0 0 0 0 0 0 0 0 0 0 0 0 0 0 0 0 0 0 127 0" result="hardAlpha"/>
<feOffset dy="4"/>
<feGaussianBlur stdDeviation="2"/>
<feComposite in2="hardAlpha" operator="out"/>
<feColorMatrix type="matrix" values="0 0 0 0 0 0 0 0 0 0 0 0 0 0 0 0 0 0 0.25 0"/>
<feBlend mode="normal" in2="BackgroundImageFix" result="effect1_dropShadow_141_317"/>
<feBlend mode="normal" in="SourceGraphic" in2="effect1_dropShadow_141_317" result="shape"/>
</filter>
<filter id="filter9_d_141_317" x="218.77" y="37.936" width="20.2042" height="23.5773" filterUnits="userSpaceOnUse" color-interpolation-filters="sRGB">
<feFlood flood-opacity="0" result="BackgroundImageFix"/>
<feColorMatrix in="SourceAlpha" type="matrix" values="0 0 0 0 0 0 0 0 0 0 0 0 0 0 0 0 0 0 127 0" result="hardAlpha"/>
<feOffset dy="4"/>
<feGaussianBlur stdDeviation="2"/>
<feComposite in2="hardAlpha" operator="out"/>
<feColorMatrix type="matrix" values="0 0 0 0 0 0 0 0 0 0 0 0 0 0 0 0 0 0 0.25 0"/>
<feBlend mode="normal" in2="BackgroundImageFix" result="effect1_dropShadow_141_317"/>
<feBlend mode="normal" in="SourceGraphic" in2="effect1_dropShadow_141_317" result="shape"/>
</filter>
<filter id="filter10_d_141_317" x="132.924" y="24.1201" width="34.6986" height="30.6844" filterUnits="userSpaceOnUse" color-interpolation-filters="sRGB">
<feFlood flood-opacity="0" result="BackgroundImageFix"/>
<feColorMatrix in="SourceAlpha" type="matrix" values="0 0 0 0 0 0 0 0 0 0 0 0 0 0 0 0 0 0 127 0" result="hardAlpha"/>
<feOffset dy="4"/>
<feGaussianBlur stdDeviation="2"/>
<feComposite in2="hardAlpha" operator="out"/>
<feColorMatrix type="matrix" values="0 0 0 0 0 0 0 0 0 0 0 0 0 0 0 0 0 0 0.25 0"/>
<feBlend mode="normal" in2="BackgroundImageFix" result="effect1_dropShadow_141_317"/>
<feBlend mode="normal" in="SourceGraphic" in2="effect1_dropShadow_141_317" result="shape"/>
</filter>
<filter id="filter11_d_141_317" x="135.006" y="23.2622" width="29.605" height="34.062" filterUnits="userSpaceOnUse" color-interpolation-filters="sRGB">
<feFlood flood-opacity="0" result="BackgroundImageFix"/>
<feColorMatrix in="SourceAlpha" type="matrix" values="0 0 0 0 0 0 0 0 0 0 0 0 0 0 0 0 0 0 127 0" result="hardAlpha"/>
<feOffset dy="4"/>
<feGaussianBlur stdDeviation="2"/>
<feComposite in2="hardAlpha" operator="out"/>
<feColorMatrix type="matrix" values="0 0 0 0 0 0 0 0 0 0 0 0 0 0 0 0 0 0 0.25 0"/>
<feBlend mode="normal" in2="BackgroundImageFix" result="effect1_dropShadow_141_317"/>
<feBlend mode="normal" in="SourceGraphic" in2="effect1_dropShadow_141_317" result="shape"/>
</filter>
<filter id="filter12_d_141_317" x="117.244" y="40.0266" width="23.4714" height="21.3572" filterUnits="userSpaceOnUse" color-interpolation-filters="sRGB">
<feFlood flood-opacity="0" result="BackgroundImageFix"/>
<feColorMatrix in="SourceAlpha" type="matrix" values="0 0 0 0 0 0 0 0 0 0 0 0 0 0 0 0 0 0 127 0" result="hardAlpha"/>
<feOffset dy="4"/>
<feGaussianBlur stdDeviation="2"/>
<feComposite in2="hardAlpha" operator="out"/>
<feColorMatrix type="matrix" values="0 0 0 0 0 0 0 0 0 0 0 0 0 0 0 0 0 0 0.25 0"/>
<feBlend mode="normal" in2="BackgroundImageFix" result="effect1_dropShadow_141_317"/>
<feBlend mode="normal" in="SourceGraphic" in2="effect1_dropShadow_141_317" result="shape"/>
</filter>
<filter id="filter13_d_141_317" x="118.23" y="38.9064" width="20.8453" height="23.7074" filterUnits="userSpaceOnUse" color-interpolation-filters="sRGB">
<feFlood flood-opacity="0" result="BackgroundImageFix"/>
<feColorMatrix in="SourceAlpha" type="matrix" values="0 0 0 0 0 0 0 0 0 0 0 0 0 0 0 0 0 0 127 0" result="hardAlpha"/>
<feOffset dy="4"/>
<feGaussianBlur stdDeviation="2"/>
<feComposite in2="hardAlpha" operator="out"/>
<feColorMatrix type="matrix" values="0 0 0 0 0 0 0 0 0 0 0 0 0 0 0 0 0 0 0.25 0"/>
<feBlend mode="normal" in2="BackgroundImageFix" result="effect1_dropShadow_141_317"/>
<feBlend mode="normal" in="SourceGraphic" in2="effect1_dropShadow_141_317" result="shape"/>
</filter>
<filter id="filter14_d_141_317" x="215.378" y="14.4927" width="14.5854" height="13.6289" filterUnits="userSpaceOnUse" color-interpolation-filters="sRGB">
<feFlood flood-opacity="0" result="BackgroundImageFix"/>
<feColorMatrix in="SourceAlpha" type="matrix" values="0 0 0 0 0 0 0 0 0 0 0 0 0 0 0 0 0 0 127 0" result="hardAlpha"/>
<feOffset dy="4"/>
<feGaussianBlur stdDeviation="2"/>
<feComposite in2="hardAlpha" operator="out"/>
<feColorMatrix type="matrix" values="0 0 0 0 0 0 0 0 0 0 0 0 0 0 0 0 0 0 0.25 0"/>
<feBlend mode="normal" in2="BackgroundImageFix" result="effect1_dropShadow_141_317"/>
<feBlend mode="normal" in="SourceGraphic" in2="effect1_dropShadow_141_317" result="shape"/>
</filter>
<filter id="filter15_d_141_317" x="215.856" y="14.1874" width="13.3801" height="14.5206" filterUnits="userSpaceOnUse" color-interpolation-filters="sRGB">
<feFlood flood-opacity="0" result="BackgroundImageFix"/>
<feColorMatrix in="SourceAlpha" type="matrix" values="0 0 0 0 0 0 0 0 0 0 0 0 0 0 0 0 0 0 127 0" result="hardAlpha"/>
<feOffset dy="4"/>
<feGaussianBlur stdDeviation="2"/>
<feComposite in2="hardAlpha" operator="out"/>
<feColorMatrix type="matrix" values="0 0 0 0 0 0 0 0 0 0 0 0 0 0 0 0 0 0 0.25 0"/>
<feBlend mode="normal" in2="BackgroundImageFix" result="effect1_dropShadow_141_317"/>
<feBlend mode="normal" in="SourceGraphic" in2="effect1_dropShadow_141_317" result="shape"/>
</filter>
<filter id="filter16_d_141_317" x="121.061" y="14.4927" width="14.5854" height="13.6289" filterUnits="userSpaceOnUse" color-interpolation-filters="sRGB">
<feFlood flood-opacity="0" result="BackgroundImageFix"/>
<feColorMatrix in="SourceAlpha" type="matrix" values="0 0 0 0 0 0 0 0 0 0 0 0 0 0 0 0 0 0 127 0" result="hardAlpha"/>
<feOffset dy="4"/>
<feGaussianBlur stdDeviation="2"/>
<feComposite in2="hardAlpha" operator="out"/>
<feColorMatrix type="matrix" values="0 0 0 0 0 0 0 0 0 0 0 0 0 0 0 0 0 0 0.25 0"/>
<feBlend mode="normal" in2="BackgroundImageFix" result="effect1_dropShadow_141_317"/>
<feBlend mode="normal" in="SourceGraphic" in2="effect1_dropShadow_141_317" result="shape"/>
</filter>
<filter id="filter17_d_141_317" x="121.539" y="14.1874" width="13.3801" height="14.5206" filterUnits="userSpaceOnUse" color-interpolation-filters="sRGB">
<feFlood flood-opacity="0" result="BackgroundImageFix"/>
<feColorMatrix in="SourceAlpha" type="matrix" values="0 0 0 0 0 0 0 0 0 0 0 0 0 0 0 0 0 0 127 0" result="hardAlpha"/>
<feOffset dy="4"/>
<feGaussianBlur stdDeviation="2"/>
<feComposite in2="hardAlpha" operator="out"/>
<feColorMatrix type="matrix" values="0 0 0 0 0 0 0 0 0 0 0 0 0 0 0 0 0 0 0.25 0"/>
<feBlend mode="normal" in2="BackgroundImageFix" result="effect1_dropShadow_141_317"/>
<feBlend mode="normal" in="SourceGraphic" in2="effect1_dropShadow_141_317" result="shape"/>
</filter>
</defs>
</svg>
