<svg width="25" height="25" viewBox="0 0 25 25" fill="none" xmlns="http://www.w3.org/2000/svg">
<path d="M22.1636 5.89999H21.4818V5.21817C21.4818 4.34089 20.7682 3.62726 19.8909 3.62726H2.83636C1.95909 3.62726 1.24545 4.34089 1.24545 5.21817V17.5045C1.24545 18.3818 1.95909 19.0954 2.83636 19.0954H3.51818V19.7773C3.51818 20.6545 4.23182 21.3682 5.10909 21.3682H22.1636C23.0409 21.3682 23.7545 20.6545 23.7545 19.7773V7.49089C23.7545 6.61817 23.0409 5.89999 22.1636 5.89999ZM17.3727 18.1909L14.3864 15.2045L17.0455 12.5454L20.5727 16.0727V17.5091C20.5727 17.8863 20.2682 18.1909 19.8909 18.1909H17.3727ZM2.83636 4.53635H19.8909C20.2682 4.53635 20.5727 4.84089 20.5727 5.21817V14.7863L17.3682 11.5818C17.1909 11.4045 16.9045 11.4045 16.7273 11.5818L13.75 14.5591L8.35909 9.17271C8.18182 8.99544 7.89545 8.99544 7.71818 9.17271L2.15454 14.7318V5.21817C2.15454 4.84544 2.45909 4.53635 2.83636 4.53635ZM2.15454 17.5091V16.0182L8.03636 10.1363L16.0909 18.1909H2.83636C2.45909 18.1909 2.15454 17.8818 2.15454 17.5091ZM22.8455 19.7818C22.8455 20.1591 22.5409 20.4636 22.1636 20.4636H5.10909C4.73182 20.4636 4.42727 20.1591 4.42727 19.7818V19.1H19.8909C20.7682 19.1 21.4818 18.3863 21.4818 17.5091V6.80908H22.1636C22.5409 6.80908 22.8455 7.11362 22.8455 7.49089V19.7818Z" fill="black"/>
<path d="M15.3 9.6591C16.3909 9.6591 17.2818 8.76819 17.2818 7.67728C17.2818 6.58637 16.3909 5.69547 15.3 5.69547C14.2091 5.69547 13.3182 6.58637 13.3182 7.67728C13.3182 8.76819 14.2091 9.6591 15.3 9.6591ZM15.3 6.60001C15.8909 6.60001 16.3727 7.08183 16.3727 7.67274C16.3727 8.26365 15.8909 8.74547 15.3 8.74547C14.7091 8.74547 14.2273 8.26365 14.2273 7.67274C14.2273 7.08183 14.7091 6.60001 15.3 6.60001Z" fill="black"/>
</svg>
