<svg width="25" height="25" viewBox="0 0 25 25" fill="none" xmlns="http://www.w3.org/2000/svg">
<g clip-path="url(#clip0_1_17)">
<path d="M17.1875 11.7188C17.1875 11.5115 17.2698 11.3128 17.4163 11.1663C17.5628 11.0198 17.7615 10.9375 17.9688 10.9375H19.5312C19.7385 10.9375 19.9372 11.0198 20.0837 11.1663C20.2302 11.3128 20.3125 11.5115 20.3125 11.7188V13.2812C20.3125 13.4885 20.2302 13.6872 20.0837 13.8337C19.9372 13.9802 19.7385 14.0625 19.5312 14.0625H17.9688C17.7615 14.0625 17.5628 13.9802 17.4163 13.8337C17.2698 13.6872 17.1875 13.4885 17.1875 13.2812V11.7188Z" fill="black"/>
<path d="M5.46875 0C5.67595 0 5.87466 0.08231 6.02118 0.228823C6.16769 0.375336 6.25 0.57405 6.25 0.78125V1.5625H18.75V0.78125C18.75 0.57405 18.8323 0.375336 18.9788 0.228823C19.1253 0.08231 19.324 0 19.5312 0C19.7385 0 19.9372 0.08231 20.0837 0.228823C20.2302 0.375336 20.3125 0.57405 20.3125 0.78125V1.5625H21.875C22.7038 1.5625 23.4987 1.89174 24.0847 2.47779C24.6708 3.06384 25 3.8587 25 4.6875V21.875C25 22.7038 24.6708 23.4987 24.0847 24.0847C23.4987 24.6708 22.7038 25 21.875 25H3.125C2.2962 25 1.50134 24.6708 0.915291 24.0847C0.32924 23.4987 0 22.7038 0 21.875V4.6875C0 3.8587 0.32924 3.06384 0.915291 2.47779C1.50134 1.89174 2.2962 1.5625 3.125 1.5625H4.6875V0.78125C4.6875 0.57405 4.76981 0.375336 4.91632 0.228823C5.06284 0.08231 5.26155 0 5.46875 0ZM3.125 3.125C2.7106 3.125 2.31317 3.28962 2.02015 3.58265C1.72712 3.87567 1.5625 4.2731 1.5625 4.6875V21.875C1.5625 22.2894 1.72712 22.6868 2.02015 22.9799C2.31317 23.2729 2.7106 23.4375 3.125 23.4375H21.875C22.2894 23.4375 22.6868 23.2729 22.9799 22.9799C23.2729 22.6868 23.4375 22.2894 23.4375 21.875V4.6875C23.4375 4.2731 23.2729 3.87567 22.9799 3.58265C22.6868 3.28962 22.2894 3.125 21.875 3.125H3.125Z" fill="black"/>
<path d="M3.90625 6.25C3.90625 6.0428 3.98856 5.84409 4.13507 5.69757C4.28159 5.55106 4.4803 5.46875 4.6875 5.46875H20.3125C20.5197 5.46875 20.7184 5.55106 20.8649 5.69757C21.0114 5.84409 21.0938 6.0428 21.0938 6.25V7.8125C21.0938 8.0197 21.0114 8.21841 20.8649 8.36493C20.7184 8.51144 20.5197 8.59375 20.3125 8.59375H4.6875C4.4803 8.59375 4.28159 8.51144 4.13507 8.36493C3.98856 8.21841 3.90625 8.0197 3.90625 7.8125V6.25Z" fill="black"/>
</g>
<defs>
<clipPath id="clip0_1_17">
<rect width="25" height="25" fill="white"/>
</clipPath>
</defs>
</svg>
