<svg width="27" height="28" viewBox="0 0 27 28" fill="none" xmlns="http://www.w3.org/2000/svg">
<g clip-path="url(#clip0_1_25)">
<path d="M8.2653 0.664337H21.2117C22.0701 0.664337 22.8934 1.01154 23.5004 1.62955C24.1073 2.24757 24.4483 3.08578 24.4483 3.95979V20.4371C24.4483 21.3111 24.1073 22.1493 23.5004 22.7673C22.8934 23.3853 22.0701 23.7325 21.2117 23.7325C21.2117 24.6065 20.8707 25.4447 20.2637 26.0628C19.6568 26.6808 18.8335 27.028 17.9751 27.028H5.02869C4.17029 27.028 3.34705 26.6808 2.74006 26.0628C2.13308 25.4447 1.79208 24.6065 1.79208 23.7325H3.41039C3.41039 24.1695 3.58089 24.5886 3.88438 24.8976C4.18787 25.2066 4.59949 25.3802 5.02869 25.3802H17.9751C18.4043 25.3802 18.8159 25.2066 19.1194 24.8976C19.4229 24.5886 19.5934 24.1695 19.5934 23.7325V7.25525C19.5934 6.81824 19.4229 6.39914 19.1194 6.09013C18.8159 5.78112 18.4043 5.60752 17.9751 5.60752H5.02869C4.59949 5.60752 4.18787 5.78112 3.88438 6.09013C3.58089 6.39914 3.41039 6.81824 3.41039 7.25525H1.79208C1.79208 6.38124 2.13308 5.54303 2.74006 4.92501C3.34705 4.30699 4.17029 3.95979 5.02869 3.95979H17.9751C18.8335 3.95979 19.6568 4.30699 20.2637 4.92501C20.8707 5.54303 21.2117 6.38124 21.2117 7.25525V22.0848C21.6409 22.0848 22.0525 21.9112 22.356 21.6022C22.6595 21.2932 22.83 20.8741 22.83 20.4371V3.95979C22.83 3.52279 22.6595 3.10368 22.356 2.79467C22.0525 2.48566 21.6409 2.31206 21.2117 2.31206H8.2653C7.8361 2.31206 7.42448 2.48566 7.12099 2.79467C6.81749 3.10368 6.64699 3.52279 6.64699 3.95979H5.02869C5.02869 3.08578 5.36969 2.24757 5.97667 1.62955C6.58365 1.01154 7.4069 0.664337 8.2653 0.664337Z" fill="black"/>
<path d="M1.79207 10.5507V9.72685C1.79207 9.50835 1.87732 9.29879 2.02907 9.14429C2.18081 8.98978 2.38662 8.90298 2.60122 8.90298C2.81582 8.90298 3.02163 8.98978 3.17338 9.14429C3.32512 9.29879 3.41037 9.50835 3.41037 9.72685V10.5507H4.21953C4.43413 10.5507 4.63994 10.6375 4.79168 10.792C4.94343 10.9465 5.02868 11.1561 5.02868 11.3746C5.02868 11.5931 4.94343 11.8026 4.79168 11.9571C4.63994 12.1116 4.43413 12.1984 4.21953 12.1984H0.982919C0.768318 12.1984 0.562508 12.1116 0.410762 11.9571C0.259017 11.8026 0.173767 11.5931 0.173767 11.3746C0.173767 11.1561 0.259017 10.9465 0.410762 10.792C0.562508 10.6375 0.768318 10.5507 0.982919 10.5507H1.79207ZM1.79207 15.4939V14.67C1.79207 14.4515 1.87732 14.242 2.02907 14.0875C2.18081 13.933 2.38662 13.8462 2.60122 13.8462C2.81582 13.8462 3.02163 13.933 3.17338 14.0875C3.32512 14.242 3.41037 14.4515 3.41037 14.67V15.4939H4.21953C4.43413 15.4939 4.63994 15.5807 4.79168 15.7352C4.94343 15.8897 5.02868 16.0993 5.02868 16.3178C5.02868 16.5363 4.94343 16.7458 4.79168 16.9003C4.63994 17.0548 4.43413 17.1416 4.21953 17.1416H0.982919C0.768318 17.1416 0.562508 17.0548 0.410762 16.9003C0.259017 16.7458 0.173767 16.5363 0.173767 16.3178C0.173767 16.0993 0.259017 15.8897 0.410762 15.7352C0.562508 15.5807 0.768318 15.4939 0.982919 15.4939H1.79207ZM1.79207 19.6132V20.4371H0.982919C0.768318 20.4371 0.562508 20.5239 0.410762 20.6784C0.259017 20.8329 0.173767 21.0424 0.173767 21.2609C0.173767 21.4794 0.259017 21.689 0.410762 21.8435C0.562508 21.998 0.768318 22.0848 0.982919 22.0848H4.21953C4.43413 22.0848 4.63994 21.998 4.79168 21.8435C4.94343 21.689 5.02868 21.4794 5.02868 21.2609C5.02868 21.0424 4.94343 20.8329 4.79168 20.6784C4.63994 20.5239 4.43413 20.4371 4.21953 20.4371H3.41037V19.6132C3.41037 19.3947 3.32512 19.1852 3.17338 19.0307C3.02163 18.8761 2.81582 18.7893 2.60122 18.7893C2.38662 18.7893 2.18081 18.8761 2.02907 19.0307C1.87732 19.1852 1.79207 19.3947 1.79207 19.6132Z" fill="black"/>
</g>
<defs>
<clipPath id="clip0_1_25">
<rect width="25.8929" height="26.3636" fill="white" transform="translate(0.173767 0.664337)"/>
</clipPath>
</defs>
</svg>
