<svg width="25" height="26" viewBox="0 0 25 26" fill="none" xmlns="http://www.w3.org/2000/svg">
<path d="M12.6865 23.9951L3.42619 23.9968C3.27119 23.9971 3.10289 24.0084 2.95292 23.9632C2.47608 23.8196 1.93495 23.4024 1.891 22.8428C1.87396 22.6258 1.8836 22.402 1.88336 22.1843L1.88251 12.7781C1.88334 12.2599 1.89203 11.7488 1.99022 11.2385L2.26769 11.2029C2.28436 11.0349 2.43037 11.0431 2.55991 10.9755C2.94546 10.774 2.81213 10.3583 3.04811 10.0806C3.11791 9.99847 3.22558 9.94429 3.30234 9.86416L4.99603 7.96631C5.10288 7.84636 5.12259 7.86617 5.12298 7.69245L5.12088 5.07757C5.12494 4.41237 5.54206 3.75656 6.21741 3.71139C6.5564 3.68872 6.90146 3.70248 7.24143 3.70258L9.49446 3.70383C9.61315 3.70375 9.64769 3.72232 9.738 3.64148L9.9474 3.44357C10.6703 2.73532 11.293 1.94185 12.3336 1.83322L12.4245 1.82775C13.309 1.80304 13.7722 2.13235 14.4077 2.7658L15.3125 3.63552C15.4041 3.71399 15.4349 3.7022 15.5558 3.70256L18.4687 3.70405C18.6397 3.70439 18.8352 3.68745 18.9992 3.74149C19.6479 3.95524 19.9377 4.43135 19.938 5.10204L19.9377 7.65736C19.938 7.72799 19.9319 7.80366 19.9463 7.87267C20.1777 8.06081 20.3766 8.33615 20.5774 8.55969L22.3554 10.6311C22.4178 10.713 22.4656 10.8052 22.5301 10.8856C22.8061 11.2297 23.1368 11.4475 23.1612 11.9332L23.1651 22.5687C23.1641 22.7026 23.1737 22.8656 23.1304 22.9921C22.757 24.0834 21.768 23.9958 20.8868 23.9958L12.6865 23.9951ZM12.4814 2.60784C11.9077 2.64193 11.6309 2.90189 11.2096 3.28751C11.0998 3.38806 10.9779 3.48954 10.8794 3.60191L10.7918 3.70608L12.5886 3.70267L14.2519 3.69118C14.1792 3.65603 14.1008 3.54034 14.0372 3.48015C13.5714 3.03906 13.1611 2.58066 12.4814 2.60784ZM8.87406 4.47596L7.15356 4.47619C6.93786 4.47627 6.35503 4.41722 6.18272 4.51552L6.16383 4.52587C5.829 4.71212 5.8768 4.9796 5.88086 5.3169L5.88409 12.6194C5.88438 12.7838 5.87616 12.9543 5.89011 13.118C5.91887 13.1621 6.23981 13.4045 6.29906 13.4546L9.67406 16.2187C10.2591 15.9041 10.8847 15.9999 11.4222 16.3574C11.9389 16.7009 12.3294 17.1574 13.0247 16.7896C13.218 16.6873 13.379 16.5311 13.5567 16.404C14.0268 16.068 14.5771 15.9287 15.1311 16.1167L15.2821 16.1735L15.3863 16.2211C15.4776 16.163 15.5606 16.0754 15.6445 16.0053L18.7973 13.4137C18.8623 13.3599 19.1469 13.1603 19.1728 13.1159L19.1721 4.92823C19.1698 4.87503 19.1648 4.8251 19.1359 4.77979L19.1227 4.75905C19.0253 4.60603 18.8836 4.48892 18.7049 4.47911L8.87406 4.47596ZM19.9114 8.95121L19.9211 8.96985C19.9632 9.29536 19.9373 9.65143 19.9374 9.98121L19.9549 12.4808C20.0021 12.4349 20.0553 12.4084 20.1055 12.3674L20.9558 11.7204L21.709 11.0563L19.9114 8.95121ZM5.11217 9.02002L3.31765 11.0917L4.10666 11.7157L5.0791 12.4574C5.10234 12.4728 5.11139 12.4861 5.1247 12.511L5.11217 9.02002ZM2.83904 11.6587C2.77204 11.6671 2.69704 11.669 2.6352 11.6982L2.62949 22.4783L5.92342 19.4595L9.02093 16.6861C8.95571 16.6035 8.82445 16.5285 8.74045 16.4626L4.08294 12.6816C3.80673 12.4729 3.51908 12.2794 3.267 12.0389C3.19238 11.9677 2.95894 11.6508 2.86233 11.6546L2.83904 11.6587ZM22.1319 11.6487C21.9466 11.9686 21.711 12.1304 21.4265 12.3482L16.8273 16.0329C16.561 16.2421 16.2928 16.4506 16.06 16.7003L19.1961 19.5271L22.31 22.3229C22.3545 22.3656 22.3848 22.3775 22.4139 22.4361L22.4106 12.4041C22.4104 12.1306 22.4429 11.9496 22.2415 11.7473L22.1319 11.6487ZM14.5357 16.8255C14.162 16.8788 13.965 17.0945 13.6727 17.3176C13.3001 17.602 12.8423 17.7247 12.3851 17.7113C11.3487 17.6808 10.7791 16.236 9.67949 17.1325L3.21749 22.9497C3.13613 23.0225 3.01893 23.1043 2.97983 23.2134L9.69299 23.2177L20.4958 23.218C21.0269 23.2177 21.5715 23.2481 22.0976 23.1705L15.9457 17.6726C15.5283 17.2921 15.1497 16.775 14.5357 16.8255Z" fill="black"/>
<path d="M14.6384 13.5648L13.6703 14.3918C12.6291 15.222 12.1844 15.0456 11.2348 14.2759C9.66865 13.0066 8.14111 11.4394 7.48225 9.44734C7.31444 8.93989 7.20877 8.41907 7.28387 7.88064C7.47751 6.49243 8.64052 5.43314 9.97682 5.31202C10.7747 5.24235 11.7464 5.52343 12.3868 6.04515C12.5743 6.1979 12.4945 6.21273 12.674 6.06201C13.3015 5.53536 14.1863 5.27455 14.9833 5.30832C16.5285 5.37387 17.8681 6.75888 17.7909 8.38794C17.6989 10.3288 15.9548 12.3277 14.6384 13.5648ZM14.6721 6.09893C14.1008 6.14255 13.5229 6.37782 13.0615 6.73187C12.4628 7.19128 12.5644 7.15102 11.9675 6.69241C11.4019 6.25787 10.5923 6.01671 9.88568 6.11878C8.86156 6.26666 7.93915 7.28213 8.02707 8.38419C8.15965 10.0471 9.66689 11.7741 10.7706 12.846L11.8504 13.787C12.5998 14.3853 12.6708 14.2005 13.3903 13.6125C14.6997 12.5424 15.9296 11.2883 16.6528 9.70587C16.8821 9.2042 17.0669 8.66653 17.0216 8.10271C16.9261 6.91656 15.8252 6.0093 14.6955 6.09634L14.6721 6.09893Z" fill="black"/>
</svg>
