<svg width="25" height="25" viewBox="0 0 25 25" fill="none" xmlns="http://www.w3.org/2000/svg">
<path d="M16.4062 9.375H8.59375C8.38655 9.375 8.18784 9.29269 8.04132 9.14618C7.89481 8.99966 7.8125 8.80095 7.8125 8.59375V4.6875C7.8125 4.4803 7.89481 4.28159 8.04132 4.13507C8.18784 3.98856 8.38655 3.90625 8.59375 3.90625H9.47656C9.65135 3.2375 10.0429 2.64558 10.59 2.22311C11.1371 1.80064 11.8088 1.57147 12.5 1.57147C13.1912 1.57147 13.8629 1.80064 14.41 2.22311C14.9571 2.64558 15.3487 3.2375 15.5234 3.90625H16.4062C16.6135 3.90625 16.8122 3.98856 16.9587 4.13507C17.1052 4.28159 17.1875 4.4803 17.1875 4.6875V8.59375C17.1875 8.80095 17.1052 8.99966 16.9587 9.14618C16.8122 9.29269 16.6135 9.375 16.4062 9.375ZM9.375 7.8125H15.625V5.46875H14.8438C14.6365 5.46875 14.4378 5.38644 14.2913 5.23993C14.1448 5.09341 14.0625 4.8947 14.0625 4.6875C14.0625 4.2731 13.8979 3.87567 13.6049 3.58265C13.3118 3.28962 12.9144 3.125 12.5 3.125C12.0856 3.125 11.6882 3.28962 11.3951 3.58265C11.1021 3.87567 10.9375 4.2731 10.9375 4.6875C10.9375 4.8947 10.8552 5.09341 10.7087 5.23993C10.5622 5.38644 10.3635 5.46875 10.1562 5.46875H9.375V7.8125ZM21.0938 21.0938V7.03125C21.0938 6.40965 20.8468 5.81351 20.4073 5.37397C19.9677 4.93443 19.3716 4.6875 18.75 4.6875H17.9688V6.25H18.75C18.9572 6.25 19.1559 6.33231 19.3024 6.47882C19.4489 6.62534 19.5312 6.82405 19.5312 7.03125V21.0938C19.5312 21.301 19.4489 21.4997 19.3024 21.6462C19.1559 21.7927 18.9572 21.875 18.75 21.875H6.25C6.0428 21.875 5.84409 21.7927 5.69757 21.6462C5.55106 21.4997 5.46875 21.301 5.46875 21.0938V7.03125C5.46875 6.82405 5.55106 6.62534 5.69757 6.47882C5.84409 6.33231 6.0428 6.25 6.25 6.25H7.03125V4.6875H6.25C5.6284 4.6875 5.03226 4.93443 4.59272 5.37397C4.15318 5.81351 3.90625 6.40965 3.90625 7.03125V21.0938C3.90625 21.7154 4.15318 22.3115 4.59272 22.751C5.03226 23.1906 5.6284 23.4375 6.25 23.4375H18.75C19.3716 23.4375 19.9677 23.1906 20.4073 22.751C20.8468 22.3115 21.0938 21.7154 21.0938 21.0938ZM17.1875 11.7188H7.8125V13.2812H17.1875V11.7188ZM17.1875 14.8438H7.8125V16.4062H17.1875V14.8438ZM17.1875 17.9688H7.8125V19.5312H17.1875V17.9688Z" fill="black"/>
</svg>
